bug210.ufo
<glyph name="AE" format="1">
	<advance width="904"/>
	<outline>
		<contour>
			<point x="431" y="216" type="line"/>
			<point x="431" y="0" type="line"/>
			<point x="848" y="0" type="line"/>
			<point x="848" y="66" type="line"/>
			<point x="524" y="66" type="line"/>
			<point x="524" y="341" type="line"/>
			<point x="767" y="341" type="line"/>
			<point x="767" y="406" type="line"/>
			<point x="524" y="406" type="line"/>
			<point x="524" y="654" type="line"/>
			<point x="839" y="654" type="line"/>
			<point x="839" y="719" type="line"/>
			<point x="372" y="719" type="line"/>
			<point x="-15" y="0" type="line"/>
			<point x="92" y="0" type="line"/>
			<point x="201" y="216" type="line"/>
		</contour>
		<contour>
			<point x="431" y="282" type="line"/>
			<point x="236" y="282" type="line"/>
			<point x="333" y="473" type="line"/>
			<point x="365" y="536"/>
			<point x="395" y="598"/>
			<point x="424" y="663" type="curve"/>
			<point x="431" y="663" type="line"/>
			<point x="431" y="592"/>
			<point x="431" y="532"/>
			<point x="431" y="471" type="curve"/>
		</contour>
	</outline>
</glyph>
<glyph name="Aring" format="1">
	<advance width="603"/>
	<outline>
		<contour>
			<point x="426" y="216" type="line"/>
			<point x="488" y="0" type="line"/>
			<point x="588" y="0" type="line"/>
			<point x="362" y="719" type="line"/>
			<point x="240" y="719" type="line"/>
			<point x="15" y="0" type="line"/>
			<point x="115" y="0" type="line"/>
			<point x="176" y="216" type="line"/>
		</contour>
		<contour>
			<point x="406" y="282" type="line"/>
			<point x="196" y="282" type="line"/>
			<point x="249" y="470" type="line"/>
			<point x="265" y="529"/>
			<point x="282" y="590"/>
			<point x="298" y="659" type="curve"/>
			<point x="304" y="659" type="line"/>
			<point x="320" y="590"/>
			<point x="337" y="531"/>
			<point x="354" y="469" type="curve"/>
		</contour>
		<contour>
			<point x="302" y="732" type="line"/>
			<point x="349" y="732"/>
			<point x="393" y="758"/>
			<point x="393" y="804" type="curve"/>
			<point x="393" y="850"/>
			<point x="349" y="876"/>
			<point x="302" y="876" type="curve"/>
			<point x="255" y="876"/>
			<point x="211" y="850"/>
			<point x="211" y="804" type="curve"/>
			<point x="211" y="758"/>
			<point x="255" y="732"/>
			<point x="301" y="732" type="curve"/>
		</contour>
		<contour>
			<point x="301" y="767" type="line"/>
			<point x="272" y="767"/>
			<point x="254" y="783"/>
			<point x="254" y="804" type="curve"/>
			<point x="254" y="827"/>
			<point x="275" y="841"/>
			<point x="301" y="841" type="curve"/>
			<point x="327" y="841"/>
			<point x="348" y="827"/>
			<point x="348" y="804" type="curve"/>
			<point x="348" y="783"/>
			<point x="330" y="767"/>
			<point x="302" y="767" type="curve"/>
		</contour>
	</outline>
</glyph>
<glyph name="Ccedilla" format="1">
	<advance width="675"/>
	<outline>
		<contour>
			<point x="536" y="203" type="line"/>
			<point x="516" y="136"/>
			<point x="458" y="50"/>
			<point x="358" y="50" type="curve"/>
			<point x="248" y="50"/>
			<point x="144" y="128"/>
			<point x="144" y="359" type="curve"/>
			<point x="144" y="588"/>
			<point x="248" y="669"/>
			<point x="361" y="669" type="curve"/>
			<point x="450" y="669"/>
			<point x="499" y="613"/>
			<point x="525" y="532" type="curve"/>
			<point x="619" y="544" type="line"/>
			<point x="584" y="665"/>
			<point x="491" y="734"/>
			<point x="361" y="734" type="curve"/>
			<point x="273" y="734"/>
			<point x="197" y="702"/>
			<point x="141" y="643" type="curve"/>
			<point x="83" y="579"/>
			<point x="49" y="484"/>
			<point x="49" y="362" type="curve"/>
			<point x="49" y="226"/>
			<point x="85" y="133"/>
			<point x="143" y="72" type="curve"/>
			<point x="188" y="22"/>
			<point x="254" y="-8"/>
			<point x="330" y="-13" type="curve"/>
			<point x="292" y="-71" type="line"/>
			<point x="307" y="-83" type="line"/>
			<point x="360" y="-74"/>
			<point x="397" y="-87"/>
			<point x="397" y="-115" type="curve"/>
			<point x="397" y="-137"/>
			<point x="374" y="-152"/>
			<point x="330" y="-152" type="curve"/>
			<point x="301" y="-152"/>
			<point x="272" y="-143"/>
			<point x="255" y="-134" type="curve"/>
			<point x="232" y="-166" type="line"/>
			<point x="254" y="-180"/>
			<point x="293" y="-191"/>
			<point x="346" y="-191" type="curve"/>
			<point x="423" y="-191"/>
			<point x="463" y="-161"/>
			<point x="463" y="-118" type="curve"/>
			<point x="463" y="-73"/>
			<point x="415" y="-52"/>
			<point x="363" y="-56" type="curve"/>
			<point x="392" y="-12" type="line"/>
			<point x="511" y="0"/>
			<point x="596" y="90"/>
			<point x="631" y="187" type="curve"/>
		</contour>
	</outline>
</glyph>
<glyph name="D" format="1">
	<advance width="675"/>
	<outline>
		<contour>
			<point x="301" y="0" type="line"/>
			<point x="534" y="0"/>
			<point x="628" y="125"/>
			<point x="628" y="362" type="curve"/>
			<point x="628" y="607"/>
			<point x="523" y="719"/>
			<point x="298" y="719" type="curve"/>
			<point x="84" y="719" type="line"/>
			<point x="84" y="0" type="line"/>
		</contour>
		<contour>
			<point x="177" y="66" type="line"/>
			<point x="177" y="654" type="line"/>
			<point x="294" y="654" type="line"/>
			<point x="464" y="654"/>
			<point x="533" y="552"/>
			<point x="533" y="360" type="curve"/>
			<point x="533" y="155"/>
			<point x="453" y="66"/>
			<point x="296" y="66" type="curve"/>
		</contour>
	</outline>
</glyph>
<glyph name="D.sc" format="1">
	<advance width="596"/>
	<outline>
		<contour>
			<point x="275" y="0" type="line"/>
			<point x="472" y="0"/>
			<point x="549" y="103"/>
			<point x="549" y="290" type="curve"/>
			<point x="549" y="483"/>
			<point x="462" y="575"/>
			<point x="273" y="575" type="curve"/>
			<point x="84" y="575" type="line"/>
			<point x="84" y="0" type="line"/>
		</contour>
		<contour>
			<point x="175" y="63" type="line"/>
			<point x="175" y="513" type="line"/>
			<point x="268" y="513" type="line"/>
			<point x="404" y="513"/>
			<point x="456" y="432"/>
			<point x="456" y="288" type="curve"/>
			<point x="456" y="129"/>
			<point x="393" y="63"/>
			<point x="270" y="63" type="curve"/>
		</contour>
	</outline>
</glyph>
<glyph name="E.sc" format="1">
	<advance width="497"/>
	<outline>
		<contour>
			<point x="175" y="329" type="line"/>
			<point x="175" y="513" type="line"/>
			<point x="434" y="513" type="line"/>
			<point x="434" y="575" type="line"/>
			<point x="84" y="575" type="line"/>
			<point x="84" y="0" type="line"/>
			<point x="442" y="0" type="line"/>
			<point x="442" y="63" type="line"/>
			<point x="175" y="63" type="line"/>
			<point x="175" y="267" type="line"/>
			<point x="372" y="267" type="line"/>
			<point x="372" y="329" type="line"/>
		</contour>
	</outline>
</glyph>
<glyph name="Eacute" format="1">
	<advance width="559"/>
	<outline>
		<contour>
			<point x="177" y="407" type="line"/>
			<point x="177" y="654" type="line"/>
			<point x="494" y="654" type="line"/>
			<point x="494" y="719" type="line"/>
			<point x="84" y="719" type="line"/>
			<point x="84" y="0" type="line"/>
			<point x="504" y="0" type="line"/>
			<point x="504" y="66" type="line"/>
			<point x="177" y="66" type="line"/>
			<point x="177" y="341" type="line"/>
			<point x="423" y="341" type="line"/>
			<point x="423" y="407" type="line"/>
		</contour>
		<contour>
			<point x="466" y="846" type="line"/>
			<point x="348" y="846" type="line"/>
			<point x="242" y="747" type="line"/>
			<point x="310" y="747" type="line"/>
		</contour>
	</outline>
</glyph>
<glyph name="Egrave" format="1">
	<advance width="559"/>
	<outline>
		<contour>
			<point x="177" y="407" type="line"/>
			<point x="177" y="654" type="line"/>
			<point x="494" y="654" type="line"/>
			<point x="494" y="719" type="line"/>
			<point x="84" y="719" type="line"/>
			<point x="84" y="0" type="line"/>
			<point x="504" y="0" type="line"/>
			<point x="504" y="66" type="line"/>
			<point x="177" y="66" type="line"/>
			<point x="177" y="341" type="line"/>
			<point x="423" y="341" type="line"/>
			<point x="423" y="407" type="line"/>
		</contour>
		<contour>
			<point x="95" y="846" type="line"/>
			<point x="251" y="747" type="line"/>
			<point x="320" y="747" type="line"/>
			<point x="213" y="846" type="line"/>
		</contour>
	</outline>
</glyph>
<glyph name="F.sc" format="1">
	<advance width="479"/>
	<outline>
		<contour>
			<point x="175" y="0" type="line"/>
			<point x="175" y="264" type="line"/>
			<point x="372" y="264" type="line"/>
			<point x="372" y="327" type="line"/>
			<point x="175" y="327" type="line"/>
			<point x="175" y="513" type="line"/>
			<point x="427" y="513" type="line"/>
			<point x="427" y="575" type="line"/>
			<point x="84" y="575" type="line"/>
			<point x="84" y="0" type="line"/>
		</contour>
	</outline>
</glyph>
<glyph name="G" format="1">
	<advance width="674"/>
	<outline>
		<contour>
			<point x="612" y="344" type="line"/>
			<point x="376" y="344" type="line"/>
			<point x="376" y="279" type="line"/>
			<point x="522" y="279" type="line"/>
			<point x="522" y="94" type="line"/>
			<point x="485" y="69"/>
			<point x="427" y="50"/>
			<point x="363" y="50" type="curve"/>
			<point x="235" y="50"/>
			<point x="144" y="156"/>
			<point x="144" y="360" type="curve"/>
			<point x="144" y="584"/>
			<point x="263" y="669"/>
			<point x="362" y="669" type="curve"/>
			<point x="437" y="669"/>
			<point x="477" y="633"/>
			<point x="514" y="551" type="curve"/>
			<point x="608" y="571" type="line"/>
			<point x="556" y="675"/>
			<point x="473" y="734"/>
			<point x="360" y="734" type="curve"/>
			<point x="193" y="734"/>
			<point x="49" y="633"/>
			<point x="49" y="361" type="curve"/>
			<point x="49" y="119"/>
			<point x="162" y="-14"/>
			<point x="358" y="-14" type="curve"/>
			<point x="470" y="-14"/>
			<point x="557" y="28"/>
			<point x="612" y="73" type="curve"/>
		</contour>
	</outline>
</glyph>
<glyph name="H" format="1">
	<advance width="704"/>
	<outline>
		<contour>
			<point x="620" y="719" type="line"/>
			<point x="526" y="719" type="line"/>
			<point x="526" y="407" type="line"/>
			<point x="177" y="407" type="line"/>
			<point x="177" y="719" type="line"/>
			<point x="84" y="719" type="line"/>
			<point x="84" y="0" type="line"/>
			<point x="177" y="0" type="line"/>
			<point x="177" y="342" type="line"/>
			<point x="526" y="342" type="line"/>
			<point x="526" y="0" type="line"/>
			<point x="620" y="0" type="line"/>
		</contour>
	</outline>
</glyph>
<glyph name="I.sc" format="1">
	<advance width="271"/>
	<outline>
		<contour>
			<point x="181" y="0" type="line"/>
			<point x="181" y="575" type="line"/>
			<point x="90" y="575" type="line"/>
			<point x="90" y="0" type="line"/>
		</contour>
	</outline>
</glyph>
<glyph name="Iacute" format="1">
	<advance width="273"/>
	<outline>
		<contour>
			<point x="183" y="0" type="line"/>
			<point x="183" y="719" type="line"/>
			<point x="90" y="719" type="line"/>
			<point x="90" y="0" type="line"/>
		</contour>
		<contour>
			<point x="292" y="846" type="line"/>
			<point x="174" y="846" type="line"/>
			<point x="67" y="747" type="line"/>
			<point x="135" y="747" type="line"/>
		</contour>
	</outline>
</glyph>
<glyph name="J" format="1">
	<advance width="439"/>
	<outline>
		<contour>
			<point x="13" y="34" type="line"/>
			<point x="54" y="5"/>
			<point x="96" y="-14"/>
			<point x="163" y="-14" type="curve"/>
			<point x="287" y="-14"/>
			<point x="358" y="69"/>
			<point x="358" y="248" type="curve"/>
			<point x="358" y="719" type="line"/>
			<point x="265" y="719" type="line"/>
			<point x="265" y="247" type="line"/>
			<point x="265" y="105"/>
			<point x="218" y="51"/>
			<point x="145" y="51" type="curve"/>
			<point x="97" y="51"/>
			<point x="63" y="72"/>
			<point x="33" y="101" type="curve"/>
		</contour>
	</outline>
</glyph>
<glyph name="K" format="1">
	<advance width="598"/>
	<outline>
		<contour>
			<point x="177" y="343" type="line"/>
			<point x="178" y="406"/>
			<point x="178" y="458"/>
			<point x="178" y="528" type="curve"/>
			<point x="178" y="719" type="line"/>
			<point x="84" y="719" type="line"/>
			<point x="84" y="0" type="line"/>
			<point x="178" y="0" type="line"/>
			<point x="178" y="231" type="line"/>
			<point x="268" y="348" type="line"/>
			<point x="471" y="0" type="line"/>
			<point x="580" y="0" type="line"/>
			<point x="324" y="418" type="line"/>
			<point x="541" y="719" type="line"/>
			<point x="433" y="719" type="line"/>
			<point x="302" y="527" type="line"/>
			<point x="258" y="457"/>
			<point x="220" y="407"/>
			<point x="179" y="343" type="curve"/>
		</contour>
	</outline>
</glyph>
<glyph name="L" format="1">
	<advance width="530"/>
	<outline>
		<contour>
			<point x="502" y="66" type="line"/>
			<point x="177" y="66" type="line"/>
			<point x="177" y="719" type="line"/>
			<point x="84" y="719" type="line"/>
			<point x="84" y="0" type="line"/>
			<point x="502" y="0" type="line"/>
		</contour>
	</outline>
</glyph>
<glyph name="L.sc" format="1">
	<advance width="467"/>
	<outline>
		<contour>
			<point x="440" y="63" type="line"/>
			<point x="175" y="63" type="line"/>
			<point x="175" y="575" type="line"/>
			<point x="84" y="575" type="line"/>
			<point x="84" y="0" type="line"/>
			<point x="440" y="0" type="line"/>
		</contour>
	</outline>
</glyph>
<glyph name="Lslash" format="1">
	<advance width="530"/>
	<outline>
		<contour>
			<point x="177" y="339" type="line"/>
			<point x="326" y="385" type="line"/>
			<point x="326" y="450" type="line"/>
			<point x="177" y="404" type="line"/>
			<point x="177" y="719" type="line"/>
			<point x="84" y="719" type="line"/>
			<point x="84" y="378" type="line"/>
			<point x="21" y="357" type="line"/>
			<point x="21" y="292" type="line"/>
			<point x="84" y="313" type="line"/>
			<point x="84" y="0" type="line"/>
			<point x="502" y="0" type="line"/>
			<point x="502" y="66" type="line"/>
			<point x="177" y="66" type="line"/>
		</contour>
	</outline>
</glyph>
<glyph name="N" format="1">
	<advance width="695"/>
	<outline>
		<contour>
			<point x="526" y="95" type="line"/>
			<point x="477" y="202"/>
			<point x="373" y="414"/>
			<point x="215" y="719" type="curve"/>
			<point x="84" y="719" type="line"/>
			<point x="84" y="0" type="line"/>
			<point x="171" y="0" type="line"/>
			<point x="171" y="307"/>
			<point x="170" y="518"/>
			<point x="167" y="625" type="curve"/>
			<point x="171" y="625" type="line"/>
			<point x="219" y="518"/>
			<point x="323" y="309"/>
			<point x="481" y="0" type="curve"/>
			<point x="611" y="0" type="line"/>
			<point x="611" y="719" type="line"/>
			<point x="524" y="719" type="line"/>
			<point x="524" y="414"/>
			<point x="525" y="203"/>
			<point x="529" y="95" type="curve"/>
		</contour>
	</outline>
</glyph>
<glyph name="Ntilde" format="1">
	<advance width="695"/>
	<outline>
		<contour>
			<point x="526" y="95" type="line"/>
			<point x="477" y="202"/>
			<point x="373" y="414"/>
			<point x="215" y="719" type="curve"/>
			<point x="84" y="719" type="line"/>
			<point x="84" y="0" type="line"/>
			<point x="171" y="0" type="line"/>
			<point x="171" y="307"/>
			<point x="170" y="518"/>
			<point x="167" y="625" type="curve"/>
			<point x="171" y="625" type="line"/>
			<point x="219" y="518"/>
			<point x="323" y="309"/>
			<point x="481" y="0" type="curve"/>
			<point x="611" y="0" type="line"/>
			<point x="611" y="719" type="line"/>
			<point x="524" y="719" type="line"/>
			<point x="524" y="414"/>
			<point x="525" y="203"/>
			<point x="529" y="95" type="curve"/>
		</contour>
		<contour>
			<point x="462" y="851" type="line"/>
			<point x="449" y="828"/>
			<point x="430" y="819"/>
			<point x="409" y="819" type="curve"/>
			<point x="390" y="819"/>
			<point x="373" y="824"/>
			<point x="362" y="829" type="curve"/>
			<point x="343" y="838" type="line"/>
			<point x="324" y="846"/>
			<point x="304" y="850"/>
			<point x="286" y="850" type="curve"/>
			<point x="246" y="850"/>
			<point x="218" y="828"/>
			<point x="198" y="792" type="curve"/>
			<point x="235" y="766" type="line"/>
			<point x="248" y="789"/>
			<point x="266" y="798"/>
			<point x="287" y="798" type="curve"/>
			<point x="306" y="798"/>
			<point x="323" y="793"/>
			<point x="335" y="788" type="curve"/>
			<point x="353" y="779" type="line"/>
			<point x="373" y="770"/>
			<point x="392" y="767"/>
			<point x="411" y="767" type="curve"/>
			<point x="451" y="767"/>
			<point x="479" y="789"/>
			<point x="499" y="825" type="curve"/>
		</contour>
	</outline>
</glyph>
<glyph name="O.sc" format="1">
	<advance width="632"/>
	<outline>
		<contour>
			<point x="49" y="287" type="line"/>
			<point x="49" y="80"/>
			<point x="164" y="-11"/>
			<point x="316" y="-11" type="curve"/>
			<point x="468" y="-11"/>
			<point x="583" y="80"/>
			<point x="583" y="287" type="curve"/>
			<point x="583" y="496"/>
			<point x="468" y="587"/>
			<point x="316" y="587" type="curve"/>
			<point x="164" y="587"/>
			<point x="49" y="496"/>
			<point x="49" y="288" type="curve"/>
		</contour>
		<contour>
			<point x="316" y="526" type="line"/>
			<point x="405" y="526"/>
			<point x="491" y="462"/>
			<point x="491" y="288" type="curve"/>
			<point x="491" y="116"/>
			<point x="405" y="52"/>
			<point x="316" y="52" type="curve"/>
			<point x="226" y="52"/>
			<point x="141" y="116"/>
			<point x="141" y="288" type="curve"/>
			<point x="141" y="462"/>
			<point x="226" y="526"/>
			<point x="315" y="526" type="curve"/>
		</contour>
	</outline>
</glyph>
<glyph name="OE" format="1">
	<advance width="968"/>
	<outline>
		<contour>
			<point x="831" y="341" type="line"/>
			<point x="831" y="406" type="line"/>
			<point x="586" y="406" type="line"/>
			<point x="586" y="654" type="line"/>
			<point x="903" y="654" type="line"/>
			<point x="903" y="719" type="line"/>
			<point x="507" y="719" type="line"/>
			<point x="481" y="727"/>
			<point x="446" y="734"/>
			<point x="376" y="734" type="curve"/>
			<point x="178" y="734"/>
			<point x="49" y="615"/>
			<point x="49" y="360" type="curve"/>
			<point x="49" y="105"/>
			<point x="178" y="-14"/>
			<point x="376" y="-14" type="curve"/>
			<point x="447" y="-14"/>
			<point x="481" y="-8"/>
			<point x="507" y="0" type="curve"/>
			<point x="913" y="0" type="line"/>
			<point x="913" y="66" type="line"/>
			<point x="586" y="66" type="line"/>
			<point x="586" y="341" type="line"/>
		</contour>
		<contour>
			<point x="493" y="98" type="line"/>
			<point x="493" y="66"/>
			<point x="438" y="51"/>
			<point x="377" y="51" type="curve"/>
			<point x="244" y="51"/>
			<point x="144" y="141"/>
			<point x="144" y="359" type="curve"/>
			<point x="144" y="579"/>
			<point x="244" y="669"/>
			<point x="377" y="669" type="curve"/>
			<point x="439" y="669"/>
			<point x="493" y="653"/>
			<point x="493" y="623" type="curve"/>
		</contour>
	</outline>
</glyph>
<glyph name="Oacute" format="1">
	<advance width="730"/>
	<outline>
		<contour>
			<point x="49" y="360" type="line"/>
			<point x="49" y="98"/>
			<point x="187" y="-14"/>
			<point x="365" y="-14" type="curve"/>
			<point x="543" y="-14"/>
			<point x="681" y="98"/>
			<point x="681" y="360" type="curve"/>
			<point x="681" y="622"/>
			<point x="543" y="734"/>
			<point x="365" y="734" type="curve"/>
			<point x="187" y="734"/>
			<point x="49" y="622"/>
			<point x="49" y="361" type="curve"/>
		</contour>
		<contour>
			<point x="365" y="670" type="line"/>
			<point x="479" y="670"/>
			<point x="586" y="586"/>
			<point x="586" y="360" type="curve"/>
			<point x="586" y="136"/>
			<point x="479" y="52"/>
			<point x="365" y="52" type="curve"/>
			<point x="251" y="52"/>
			<point x="144" y="136"/>
			<point x="144" y="360" type="curve"/>
			<point x="144" y="586"/>
			<point x="251" y="670"/>
			<point x="364" y="670" type="curve"/>
		</contour>
		<contour>
			<point x="550" y="847" type="line"/>
			<point x="432" y="847" type="line"/>
			<point x="326" y="748" type="line"/>
			<point x="394" y="748" type="line"/>
		</contour>
	</outline>
</glyph>
<glyph name="Otilde" format="1">
	<advance width="730"/>
	<outline>
		<contour>
			<point x="49" y="360" type="line"/>
			<point x="49" y="98"/>
			<point x="187" y="-14"/>
			<point x="365" y="-14" type="curve"/>
			<point x="543" y="-14"/>
			<point x="681" y="98"/>
			<point x="681" y="360" type="curve"/>
			<point x="681" y="622"/>
			<point x="543" y="734"/>
			<point x="365" y="734" type="curve"/>
			<point x="187" y="734"/>
			<point x="49" y="622"/>
			<point x="49" y="361" type="curve"/>
		</contour>
		<contour>
			<point x="365" y="670" type="line"/>
			<point x="479" y="670"/>
			<point x="586" y="586"/>
			<point x="586" y="360" type="curve"/>
			<point x="586" y="136"/>
			<point x="479" y="52"/>
			<point x="365" y="52" type="curve"/>
			<point x="251" y="52"/>
			<point x="144" y="136"/>
			<point x="144" y="360" type="curve"/>
			<point x="144" y="586"/>
			<point x="251" y="670"/>
			<point x="364" y="670" type="curve"/>
		</contour>
		<contour>
			<point x="478" y="852" type="line"/>
			<point x="465" y="829"/>
			<point x="447" y="820"/>
			<point x="425" y="820" type="curve"/>
			<point x="406" y="820"/>
			<point x="389" y="825"/>
			<point x="378" y="830" type="curve"/>
			<point x="359" y="839" type="line"/>
			<point x="340" y="847"/>
			<point x="320" y="851"/>
			<point x="302" y="851" type="curve"/>
			<point x="262" y="851"/>
			<point x="234" y="829"/>
			<point x="214" y="793" type="curve"/>
			<point x="251" y="767" type="line"/>
			<point x="264" y="790"/>
			<point x="282" y="799"/>
			<point x="304" y="799" type="curve"/>
			<point x="322" y="799"/>
			<point x="339" y="794"/>
			<point x="351" y="789" type="curve"/>
			<point x="369" y="780" type="line"/>
			<point x="389" y="771"/>
			<point x="409" y="768"/>
			<point x="427" y="768" type="curve"/>
			<point x="467" y="768"/>
			<point x="495" y="790"/>
			<point x="515" y="826" type="curve"/>
		</contour>
	</outline>
</glyph>
<glyph name="R" format="1">
	<advance width="633"/>
	<outline>
		<contour>
			<point x="391" y="307" type="line"/>
			<point x="497" y="320"/>
			<point x="580" y="382"/>
			<point x="580" y="510" type="curve"/>
			<point x="580" y="670"/>
			<point x="456" y="719"/>
			<point x="297" y="719" type="curve"/>
			<point x="84" y="719" type="line"/>
			<point x="84" y="0" type="line"/>
			<point x="177" y="0" type="line"/>
			<point x="177" y="296" type="line"/>
			<point x="297" y="296" type="line"/>
			<point x="504" y="0" type="line"/>
			<point x="623" y="0" type="line"/>
		</contour>
		<contour>
			<point x="177" y="361" type="line"/>
			<point x="177" y="654" type="line"/>
			<point x="293" y="654" type="line"/>
			<point x="439" y="654"/>
			<point x="485" y="599"/>
			<point x="485" y="508" type="curve"/>
			<point x="485" y="415"/>
			<point x="424" y="361"/>
			<point x="317" y="361" type="curve"/>
		</contour>
	</outline>
</glyph>
<glyph name="R.sc" format="1">
	<advance width="551"/>
	<outline>
		<contour>
			<point x="354" y="240" type="line"/>
			<point x="439" y="253"/>
			<point x="506" y="302"/>
			<point x="506" y="405" type="curve"/>
			<point x="506" y="539"/>
			<point x="395" y="575"/>
			<point x="269" y="575" type="curve"/>
			<point x="84" y="575" type="line"/>
			<point x="84" y="0" type="line"/>
			<point x="175" y="0" type="line"/>
			<point x="175" y="230" type="line"/>
			<point x="264" y="230" type="line"/>
			<point x="425" y="0" type="line"/>
			<point x="541" y="0" type="line"/>
		</contour>
		<contour>
			<point x="175" y="291" type="line"/>
			<point x="175" y="513" type="line"/>
			<point x="266" y="513" type="line"/>
			<point x="377" y="513"/>
			<point x="414" y="472"/>
			<point x="414" y="402" type="curve"/>
			<point x="414" y="332"/>
			<point x="366" y="291"/>
			<point x="283" y="291" type="curve"/>
		</contour>
	</outline>
</glyph>
<glyph name="S.sc" format="1">
	<advance width="507"/>
	<outline>
		<contour>
			<point x="443" y="467" type="line"/>
			<point x="426" y="535"/>
			<point x="367" y="587"/>
			<point x="257" y="587" type="curve"/>
			<point x="188" y="587"/>
			<point x="139" y="570"/>
			<point x="106" y="542" type="curve"/>
			<point x="72" y="516"/>
			<point x="58" y="480"/>
			<point x="58" y="441" type="curve"/>
			<point x="58" y="388"/>
			<point x="83" y="354"/>
			<point x="109" y="332" type="curve"/>
			<point x="133" y="311"/>
			<point x="163" y="295"/>
			<point x="228" y="268" type="curve"/>
			<point x="290" y="241"/>
			<point x="314" y="230"/>
			<point x="335" y="216" type="curve"/>
			<point x="355" y="201"/>
			<point x="370" y="179"/>
			<point x="370" y="147" type="curve"/>
			<point x="370" y="124"/>
			<point x="360" y="100"/>
			<point x="343" y="85" type="curve"/>
			<point x="323" y="67"/>
			<point x="293" y="51"/>
			<point x="250" y="51" type="curve"/>
			<point x="185" y="51"/>
			<point x="150" y="85"/>
			<point x="133" y="121" type="curve"/>
			<point x="44" y="113" type="line"/>
			<point x="65" y="42"/>
			<point x="125" y="-11"/>
			<point x="249" y="-11" type="curve"/>
			<point x="326" y="-11"/>
			<point x="377" y="16"/>
			<point x="411" y="46" type="curve"/>
			<point x="446" y="77"/>
			<point x="462" y="117"/>
			<point x="462" y="159" type="curve"/>
			<point x="462" y="208"/>
			<point x="440" y="243"/>
			<point x="414" y="267" type="curve"/>
			<point x="388" y="289"/>
			<point x="356" y="303"/>
			<point x="298" y="329" type="curve"/>
			<point x="236" y="353"/>
			<point x="211" y="364"/>
			<point x="187" y="380" type="curve"/>
			<point x="163" y="396"/>
			<point x="148" y="419"/>
			<point x="148" y="448" type="curve"/>
			<point x="148" y="469"/>
			<point x="157" y="488"/>
			<point x="173" y="501" type="curve"/>
			<point x="192" y="515"/>
			<point x="222" y="525"/>
			<point x="253" y="525" type="curve"/>
			<point x="314" y="525"/>
			<point x="342" y="493"/>
			<point x="355" y="462" type="curve"/>
		</contour>
	</outline>
</glyph>
<glyph name="T" format="1">
	<advance width="546"/>
	<outline>
		<contour>
			<point x="522" y="719" type="line"/>
			<point x="24" y="719" type="line"/>
			<point x="24" y="654" type="line"/>
			<point x="227" y="654" type="line"/>
			<point x="227" y="0" type="line"/>
			<point x="320" y="0" type="line"/>
			<point x="320" y="654" type="line"/>
			<point x="522" y="654" type="line"/>
		</contour>
	</outline>
</glyph>
<glyph name="U.sc" format="1">
	<advance width="588"/>
	<outline>
		<contour>
			<point x="509" y="575" type="line"/>
			<point x="421" y="575" type="line"/>
			<point x="421" y="208" type="line"/>
			<point x="421" y="104"/>
			<point x="395" y="51"/>
			<point x="294" y="51" type="curve"/>
			<point x="193" y="51"/>
			<point x="167" y="106"/>
			<point x="167" y="208" type="curve"/>
			<point x="167" y="575" type="line"/>
			<point x="79" y="575" type="line"/>
			<point x="79" y="213" type="line"/>
			<point x="79" y="46"/>
			<point x="145" y="-11"/>
			<point x="294" y="-11" type="curve"/>
			<point x="446" y="-11"/>
			<point x="509" y="48"/>
			<point x="509" y="212" type="curve"/>
		</contour>
	</outline>
</glyph>
<glyph name="Ucircumflex" format="1">
	<advance width="661"/>
	<outline>
		<contour>
			<point x="582" y="719" type="line"/>
			<point x="490" y="719" type="line"/>
			<point x="490" y="255" type="line"/>
			<point x="490" y="120"/>
			<point x="458" y="51"/>
			<point x="329" y="51" type="curve"/>
			<point x="202" y="51"/>
			<point x="170" y="122"/>
			<point x="170" y="255" type="curve"/>
			<point x="170" y="719" type="line"/>
			<point x="79" y="719" type="line"/>
			<point x="79" y="260" type="line"/>
			<point x="79" y="57"/>
			<point x="154" y="-14"/>
			<point x="329" y="-14" type="curve"/>
			<point x="509" y="-14"/>
			<point x="582" y="60"/>
			<point x="582" y="259" type="curve"/>
		</contour>
		<contour>
			<point x="332" y="805" type="line"/>
			<point x="409" y="757" type="line"/>
			<point x="490" y="757" type="line"/>
			<point x="363" y="845" type="line"/>
			<point x="298" y="845" type="line"/>
			<point x="171" y="757" type="line"/>
			<point x="252" y="757" type="line"/>
			<point x="329" y="805" type="line"/>
		</contour>
	</outline>
</glyph>
<glyph name="Ugrave" format="1">
	<advance width="661"/>
	<outline>
		<contour>
			<point x="582" y="719" type="line"/>
			<point x="490" y="719" type="line"/>
			<point x="490" y="255" type="line"/>
			<point x="490" y="120"/>
			<point x="458" y="51"/>
			<point x="329" y="51" type="curve"/>
			<point x="202" y="51"/>
			<point x="170" y="122"/>
			<point x="170" y="255" type="curve"/>
			<point x="170" y="719" type="line"/>
			<point x="79" y="719" type="line"/>
			<point x="79" y="260" type="line"/>
			<point x="79" y="57"/>
			<point x="154" y="-14"/>
			<point x="329" y="-14" type="curve"/>
			<point x="509" y="-14"/>
			<point x="582" y="60"/>
			<point x="582" y="259" type="curve"/>
		</contour>
		<contour>
			<point x="152" y="846" type="line"/>
			<point x="308" y="747" type="line"/>
			<point x="377" y="747" type="line"/>
			<point x="270" y="846" type="line"/>
		</contour>
	</outline>
</glyph>
<glyph name="X.sc" format="1">
	<advance width="524"/>
	<outline>
		<contour>
			<point x="267" y="348" type="line"/>
			<point x="265" y="348" type="line"/>
			<point x="148" y="575" type="line"/>
			<point x="44" y="575" type="line"/>
			<point x="216" y="296" type="line"/>
			<point x="36" y="0" type="line"/>
			<point x="143" y="0" type="line"/>
			<point x="265" y="234" type="line"/>
			<point x="267" y="234" type="line"/>
			<point x="389" y="0" type="line"/>
			<point x="496" y="0" type="line"/>
			<point x="316" y="296" type="line"/>
			<point x="488" y="575" type="line"/>
			<point x="384" y="575" type="line"/>
		</contour>
	</outline>
</glyph>
<glyph name="Z" format="1">
	<advance width="539"/>
	<outline>
		<contour>
			<point x="52" y="0" type="line"/>
			<point x="493" y="0" type="line"/>
			<point x="493" y="66" type="line"/>
			<point x="165" y="66" type="line"/>
			<point x="478" y="668" type="line"/>
			<point x="478" y="719" type="line"/>
			<point x="74" y="719" type="line"/>
			<point x="74" y="654" type="line"/>
			<point x="368" y="654" type="line"/>
			<point x="52" y="51" type="line"/>
		</contour>
	</outline>
</glyph>
<glyph name="agrave" format="1">
	<advance width="553"/>
	<outline>
		<contour>
			<point x="494" y="0" type="line"/>
			<point x="494" y="5" type="line"/>
			<point x="477" y="22"/>
			<point x="474" y="40"/>
			<point x="474" y="87" type="curve"/>
			<point x="474" y="350" type="line"/>
			<point x="474" y="505"/>
			<point x="408" y="552"/>
			<point x="277" y="552" type="curve"/>
			<point x="139" y="552"/>
			<point x="85" y="490"/>
			<point x="68" y="417" type="curve"/>
			<point x="158" y="407" type="line"/>
			<point x="167" y="459"/>
			<point x="201" y="499"/>
			<point x="274" y="499" type="curve"/>
			<point x="358" y="499"/>
			<point x="386" y="452"/>
			<point x="386" y="368" type="curve"/>
			<point x="386" y="348" type="line"/>
			<point x="132" y="318"/>
			<point x="43" y="252"/>
			<point x="43" y="138" type="curve"/>
			<point x="43" y="47"/>
			<point x="97" y="-12"/>
			<point x="229" y="-12" type="curve"/>
			<point x="287" y="-12"/>
			<point x="352" y="11"/>
			<point x="388" y="47" type="curve"/>
			<point x="389" y="47" type="line"/>
			<point x="391" y="29"/>
			<point x="394" y="13"/>
			<point x="405" y="0" type="curve"/>
		</contour>
		<contour>
			<point x="386" y="105" type="line"/>
			<point x="342" y="57"/>
			<point x="280" y="43"/>
			<point x="244" y="43" type="curve"/>
			<point x="160" y="43"/>
			<point x="133" y="86"/>
			<point x="133" y="143" type="curve"/>
			<point x="133" y="226"/>
			<point x="208" y="276"/>
			<point x="386" y="300" type="curve"/>
		</contour>
		<contour>
			<point x="111" y="693" type="line"/>
			<point x="250" y="587" type="line"/>
			<point x="312" y="587" type="line"/>
			<point x="214" y="693" type="line"/>
		</contour>
	</outline>
</glyph>
<glyph name="asciicircum" format="1">
	<advance width="635"/>
	<outline>
		<contour>
			<point x="317" y="647" type="line"/>
			<point x="319" y="647" type="line"/>
			<point x="474" y="351" type="line"/>
			<point x="538" y="351" type="line"/>
			<point x="342" y="715" type="line"/>
			<point x="294" y="715" type="line"/>
			<point x="98" y="351" type="line"/>
			<point x="162" y="351" type="line"/>
		</contour>
	</outline>
</glyph>
<glyph name="asciitilde" format="1">
	<advance width="635"/>
	<outline>
		<contour>
			<point x="127" y="223" type="line"/>
			<point x="141" y="248"/>
			<point x="165" y="269"/>
			<point x="208" y="269" type="curve"/>
			<point x="231" y="269"/>
			<point x="256" y="265"/>
			<point x="287" y="253" type="curve"/>
			<point x="329" y="237" type="line"/>
			<point x="358" y="225"/>
			<point x="390" y="216"/>
			<point x="433" y="216" type="curve"/>
			<point x="504" y="216"/>
			<point x="540" y="263"/>
			<point x="555" y="297" type="curve"/>
			<point x="508" y="324" type="line"/>
			<point x="494" y="298"/>
			<point x="469" y="277"/>
			<point x="428" y="277" type="curve"/>
			<point x="404" y="277"/>
			<point x="380" y="282"/>
			<point x="348" y="294" type="curve"/>
			<point x="305" y="310" type="line"/>
			<point x="278" y="321"/>
			<point x="245" y="331"/>
			<point x="202" y="331" type="curve"/>
			<point x="130" y="331"/>
			<point x="95" y="283"/>
			<point x="80" y="249" type="curve"/>
		</contour>
	</outline>
</glyph>
<glyph name="asterisk" format="1">
	<advance width="487"/>
	<outline>
		<contour>
			<point x="228" y="542" type="line"/>
			<point x="229" y="541" type="line"/>
			<point x="215" y="405" type="line"/>
			<point x="272" y="405" type="line"/>
			<point x="257" y="541" type="line"/>
			<point x="259" y="542" type="line"/>
			<point x="369" y="461" type="line"/>
			<point x="397" y="513" type="line"/>
			<point x="272" y="567" type="line"/>
			<point x="272" y="569" type="line"/>
			<point x="397" y="624" type="line"/>
			<point x="368" y="676" type="line"/>
			<point x="259" y="594" type="line"/>
			<point x="257" y="595" type="line"/>
			<point x="272" y="732" type="line"/>
			<point x="215" y="732" type="line"/>
			<point x="229" y="595" type="line"/>
			<point x="228" y="594" type="line"/>
			<point x="118" y="676" type="line"/>
			<point x="90" y="624" type="line"/>
			<point x="215" y="569" type="line"/>
			<point x="215" y="567" type="line"/>
			<point x="90" y="513" type="line"/>
			<point x="118" y="461" type="line"/>
		</contour>
	</outline>
</glyph>
<glyph name="atilde" format="1">
	<advance width="553"/>
	<outline>
		<contour>
			<point x="494" y="0" type="line"/>
			<point x="494" y="5" type="line"/>
			<point x="477" y="22"/>
			<point x="474" y="40"/>
			<point x="474" y="87" type="curve"/>
			<point x="474" y="350" type="line"/>
			<point x="474" y="505"/>
			<point x="408" y="552"/>
			<point x="277" y="552" type="curve"/>
			<point x="139" y="552"/>
			<point x="85" y="490"/>
			<point x="68" y="417" type="curve"/>
			<point x="158" y="407" type="line"/>
			<point x="167" y="459"/>
			<point x="201" y="499"/>
			<point x="274" y="499" type="curve"/>
			<point x="358" y="499"/>
			<point x="386" y="452"/>
			<point x="386" y="368" type="curve"/>
			<point x="386" y="348" type="line"/>
			<point x="132" y="318"/>
			<point x="43" y="252"/>
			<point x="43" y="138" type="curve"/>
			<point x="43" y="47"/>
			<point x="97" y="-12"/>
			<point x="229" y="-12" type="curve"/>
			<point x="287" y="-12"/>
			<point x="352" y="11"/>
			<point x="388" y="47" type="curve"/>
			<point x="389" y="47" type="line"/>
			<point x="391" y="29"/>
			<point x="394" y="13"/>
			<point x="405" y="0" type="curve"/>
		</contour>
		<contour>
			<point x="386" y="105" type="line"/>
			<point x="342" y="57"/>
			<point x="280" y="43"/>
			<point x="244" y="43" type="curve"/>
			<point x="160" y="43"/>
			<point x="133" y="86"/>
			<point x="133" y="143" type="curve"/>
			<point x="133" y="226"/>
			<point x="208" y="276"/>
			<point x="386" y="300" type="curve"/>
		</contour>
		<contour>
			<point x="182" y="608" type="line"/>
			<point x="193" y="630"/>
			<point x="207" y="636"/>
			<point x="225" y="636" type="curve"/>
			<point x="237" y="636"/>
			<point x="252" y="633"/>
			<point x="262" y="627" type="curve"/>
			<point x="278" y="620" type="line"/>
			<point x="294" y="612"/>
			<point x="314" y="607"/>
			<point x="332" y="607" type="curve"/>
			<point x="376" y="607"/>
			<point x="398" y="634"/>
			<point x="411" y="665" type="curve"/>
			<point x="373" y="685" type="line"/>
			<point x="362" y="663"/>
			<point x="348" y="656"/>
			<point x="331" y="656" type="curve"/>
			<point x="318" y="656"/>
			<point x="304" y="660"/>
			<point x="293" y="666" type="curve"/>
			<point x="278" y="673" type="line"/>
			<point x="261" y="681"/>
			<point x="243" y="686"/>
			<point x="224" y="686" type="curve"/>
			<point x="180" y="686"/>
			<point x="157" y="659"/>
			<point x="145" y="628" type="curve"/>
		</contour>
	</outline>
</glyph>
<glyph name="backslash" format="1">
	<advance width="501"/>
	<outline>
		<contour>
			<point x="29" y="750" type="line"/>
			<point x="394" y="-12" type="line"/>
			<point x="465" y="-12" type="line"/>
			<point x="100" y="750" type="line"/>
		</contour>
	</outline>
</glyph>
<glyph name="braceleft" format="1">
	<advance width="369"/>
	<outline>
		<contour>
			<point x="58" y="266" type="line"/>
			<point x="85" y="262"/>
			<point x="105" y="254"/>
			<point x="119" y="239" type="curve"/>
			<point x="133" y="222"/>
			<point x="141" y="200"/>
			<point x="141" y="156" type="curve"/>
			<point x="141" y="11" type="line"/>
			<point x="141" y="-52"/>
			<point x="155" y="-91"/>
			<point x="179" y="-116" type="curve"/>
			<point x="212" y="-149"/>
			<point x="265" y="-157"/>
			<point x="334" y="-158" type="curve"/>
			<point x="334" y="-98" type="line"/>
			<point x="297" y="-97"/>
			<point x="270" y="-89"/>
			<point x="253" y="-70" type="curve"/>
			<point x="236" y="-51"/>
			<point x="229" y="-20"/>
			<point x="229" y="29" type="curve"/>
			<point x="229" y="157" type="line"/>
			<point x="229" y="209"/>
			<point x="217" y="242"/>
			<point x="196" y="264" type="curve"/>
			<point x="177" y="283"/>
			<point x="152" y="292"/>
			<point x="121" y="295" type="curve"/>
			<point x="121" y="298" type="line"/>
			<point x="152" y="301"/>
			<point x="177" y="309"/>
			<point x="196" y="328" type="curve"/>
			<point x="217" y="350"/>
			<point x="229" y="384"/>
			<point x="229" y="435" type="curve"/>
			<point x="229" y="563" type="line"/>
			<point x="229" y="612"/>
			<point x="237" y="643"/>
			<point x="253" y="661" type="curve"/>
			<point x="268" y="680"/>
			<point x="297" y="689"/>
			<point x="334" y="690" type="curve"/>
			<point x="334" y="750" type="line"/>
			<point x="265" y="749"/>
			<point x="212" y="741"/>
			<point x="179" y="708" type="curve"/>
			<point x="155" y="683"/>
			<point x="141" y="644"/>
			<point x="141" y="581" type="curve"/>
			<point x="141" y="436" type="line"/>
			<point x="141" y="392"/>
			<point x="133" y="371"/>
			<point x="119" y="354" type="curve"/>
			<point x="105" y="338"/>
			<point x="85" y="330"/>
			<point x="58" y="326" type="curve"/>
		</contour>
	</outline>
</glyph>
<glyph name="bracketleft" format="1">
	<advance width="377"/>
	<outline>
		<contour>
			<point x="325" y="-158" type="line"/>
			<point x="325" y="-97" type="line"/>
			<point x="205" y="-97" type="line"/>
			<point x="205" y="689" type="line"/>
			<point x="325" y="689" type="line"/>
			<point x="325" y="750" type="line"/>
			<point x="117" y="750" type="line"/>
			<point x="117" y="-158" type="line"/>
		</contour>
	</outline>
</glyph>
<glyph name="bracketright" format="1">
	<advance width="376"/>
	<outline>
		<contour>
			<point x="46" y="-158" type="line"/>
			<point x="255" y="-158" type="line"/>
			<point x="255" y="750" type="line"/>
			<point x="46" y="750" type="line"/>
			<point x="46" y="689" type="line"/>
			<point x="167" y="689" type="line"/>
			<point x="167" y="-97" type="line"/>
			<point x="46" y="-97" type="line"/>
		</contour>
	</outline>
</glyph>
<glyph name="breve" format="1">
	<advance width="406"/>
	<outline>
		<contour>
			<point x="280" y="698" type="line"/>
			<point x="268" y="673"/>
			<point x="244" y="649"/>
			<point x="203" y="649" type="curve"/>
			<point x="162" y="649"/>
			<point x="139" y="673"/>
			<point x="126" y="698" type="curve"/>
			<point x="80" y="698" type="line"/>
			<point x="91" y="651"/>
			<point x="132" y="601"/>
			<point x="203" y="601" type="curve"/>
			<point x="274" y="601"/>
			<point x="315" y="651"/>
			<point x="327" y="698" type="curve"/>
		</contour>
	</outline>
</glyph>
<glyph name="bullet" format="1">
	<advance width="417"/>
	<outline>
		<contour>
			<point x="209" y="466" type="line"/>
			<point x="144" y="466"/>
			<point x="91" y="412"/>
			<point x="91" y="346" type="curve"/>
			<point x="91" y="280"/>
			<point x="144" y="226"/>
			<point x="209" y="226" type="curve"/>
			<point x="273" y="226"/>
			<point x="326" y="280"/>
			<point x="326" y="346" type="curve"/>
			<point x="326" y="412"/>
			<point x="273" y="466"/>
			<point x="210" y="466" type="curve"/>
		</contour>
	</outline>
</glyph>
<glyph name="caron" format="1">
	<advance width="406"/>
	<outline>
		<contour>
			<point x="204" y="636" type="line"/>
			<point x="202" y="636" type="line"/>
			<point x="138" y="690" type="line"/>
			<point x="70" y="690" type="line"/>
			<point x="175" y="591" type="line"/>
			<point x="231" y="591" type="line"/>
			<point x="337" y="690" type="line"/>
			<point x="268" y="690" type="line"/>
		</contour>
	</outline>
</glyph>
<glyph name="ccedilla" format="1">
	<advance width="560"/>
	<outline>
		<contour>
			<point x="432" y="147" type="line"/>
			<point x="409" y="87"/>
			<point x="369" y="46"/>
			<point x="297" y="46" type="curve"/>
			<point x="211" y="46"/>
			<point x="132" y="101"/>
			<point x="132" y="270" type="curve"/>
			<point x="132" y="423"/>
			<point x="207" y="494"/>
			<point x="298" y="494" type="curve"/>
			<point x="365" y="494"/>
			<point x="402" y="458"/>
			<point x="427" y="408" type="curve"/>
			<point x="516" y="419" type="line"/>
			<point x="488" y="493"/>
			<point x="422" y="552"/>
			<point x="299" y="552" type="curve"/>
			<point x="151" y="552"/>
			<point x="42" y="463"/>
			<point x="42" y="271" type="curve"/>
			<point x="42" y="81"/>
			<point x="138" y="-4"/>
			<point x="275" y="-11" type="curve"/>
			<point x="240" y="-63" type="line"/>
			<point x="254" y="-75" type="line"/>
			<point x="287" y="-68"/>
			<point x="334" y="-72"/>
			<point x="334" y="-103" type="curve"/>
			<point x="334" y="-125"/>
			<point x="308" y="-137"/>
			<point x="277" y="-137" type="curve"/>
			<point x="249" y="-137"/>
			<point x="225" y="-128"/>
			<point x="211" y="-120" type="curve"/>
			<point x="190" y="-150" type="line"/>
			<point x="208" y="-161"/>
			<point x="241" y="-174"/>
			<point x="289" y="-174" type="curve"/>
			<point x="358" y="-174"/>
			<point x="392" y="-145"/>
			<point x="392" y="-106" type="curve"/>
			<point x="392" y="-65"/>
			<point x="351" y="-46"/>
			<point x="304" y="-49" type="curve"/>
			<point x="330" y="-10" type="line"/>
			<point x="433" y="0"/>
			<point x="496" y="57"/>
			<point x="523" y="136" type="curve"/>
		</contour>
	</outline>
</glyph>
<glyph name="cedilla" format="1">
	<advance width="406"/>
	<outline>
		<contour>
			<point x="193" y="0" type="line"/>
			<point x="151" y="-63" type="line"/>
			<point x="165" y="-75" type="line"/>
			<point x="198" y="-68"/>
			<point x="245" y="-72"/>
			<point x="245" y="-103" type="curve"/>
			<point x="245" y="-125"/>
			<point x="219" y="-137"/>
			<point x="188" y="-137" type="curve"/>
			<point x="160" y="-137"/>
			<point x="136" y="-128"/>
			<point x="122" y="-120" type="curve"/>
			<point x="101" y="-150" type="line"/>
			<point x="119" y="-161"/>
			<point x="152" y="-174"/>
			<point x="200" y="-174" type="curve"/>
			<point x="269" y="-174"/>
			<point x="303" y="-145"/>
			<point x="303" y="-106" type="curve"/>
			<point x="303" y="-65"/>
			<point x="262" y="-46"/>
			<point x="215" y="-49" type="curve"/>
			<point x="247" y="0" type="line"/>
		</contour>
	</outline>
</glyph>
<glyph name="colon" format="1">
	<advance width="240"/>
	<outline>
		<contour>
			<point x="78" y="497" type="line"/>
			<point x="78" y="386" type="line"/>
			<point x="162" y="386" type="line"/>
			<point x="162" y="497" type="line"/>
		</contour>
		<contour>
			<point x="78" y="112" type="line"/>
			<point x="78" y="0" type="line"/>
			<point x="162" y="0" type="line"/>
			<point x="162" y="112" type="line"/>
		</contour>
	</outline>
</glyph>
<glyph name="comma" format="1">
	<advance width="240"/>
	<outline>
		<contour>
			<point x="51" y="-108" type="line"/>
			<point x="102" y="-108" type="line"/>
			<point x="172" y="115" type="line"/>
			<point x="82" y="115" type="line"/>
		</contour>
	</outline>
</glyph>
<glyph name="dagger" format="1">
	<advance width="545"/>
	<outline>
		<contour>
			<point x="310" y="575" type="line"/>
			<point x="321" y="734" type="line"/>
			<point x="224" y="734" type="line"/>
			<point x="235" y="575" type="line"/>
			<point x="89" y="582" type="line"/>
			<point x="89" y="509" type="line"/>
			<point x="235" y="517" type="line"/>
			<point x="232" y="467"/>
			<point x="229" y="421"/>
			<point x="225" y="373" type="curve"/>
			<point x="233" y="211"/>
			<point x="238" y="53"/>
			<point x="242" y="-103" type="curve"/>
			<point x="304" y="-103" type="line"/>
			<point x="307" y="53"/>
			<point x="312" y="212"/>
			<point x="320" y="373" type="curve"/>
			<point x="316" y="422"/>
			<point x="313" y="467"/>
			<point x="310" y="517" type="curve"/>
			<point x="456" y="509" type="line"/>
			<point x="456" y="582" type="line"/>
		</contour>
	</outline>
</glyph>
<glyph name="daggerdbl" format="1">
	<advance width="545"/>
	<outline>
		<contour>
			<point x="310" y="220" type="line"/>
			<point x="313" y="274"/>
			<point x="316" y="326"/>
			<point x="320" y="375" type="curve"/>
			<point x="316" y="422"/>
			<point x="313" y="468"/>
			<point x="310" y="517" type="curve"/>
			<point x="456" y="509" type="line"/>
			<point x="456" y="582" type="line"/>
			<point x="310" y="575" type="line"/>
			<point x="321" y="734" type="line"/>
			<point x="224" y="734" type="line"/>
			<point x="235" y="575" type="line"/>
			<point x="89" y="582" type="line"/>
			<point x="89" y="509" type="line"/>
			<point x="235" y="517" type="line"/>
			<point x="232" y="468"/>
			<point x="229" y="422"/>
			<point x="225" y="375" type="curve"/>
			<point x="229" y="325"/>
			<point x="232" y="274"/>
			<point x="235" y="220" type="curve"/>
			<point x="89" y="228" type="line"/>
			<point x="89" y="155" type="line"/>
			<point x="235" y="162" type="line"/>
			<point x="224" y="-77" type="line"/>
			<point x="321" y="-77" type="line"/>
			<point x="310" y="162" type="line"/>
			<point x="456" y="155" type="line"/>
			<point x="456" y="228" type="line"/>
		</contour>
	</outline>
</glyph>
<glyph name="degree" format="1">
	<advance width="383"/>
	<outline>
		<contour>
			<point x="192" y="711" type="line"/>
			<point x="125" y="711"/>
			<point x="71" y="656"/>
			<point x="71" y="588" type="curve"/>
			<point x="71" y="519"/>
			<point x="125" y="464"/>
			<point x="192" y="464" type="curve"/>
			<point x="258" y="464"/>
			<point x="312" y="519"/>
			<point x="312" y="588" type="curve"/>
			<point x="312" y="656"/>
			<point x="258" y="711"/>
			<point x="193" y="711" type="curve"/>
		</contour>
		<contour>
			<point x="193" y="664" type="line"/>
			<point x="234" y="664"/>
			<point x="267" y="629"/>
			<point x="267" y="588" type="curve"/>
			<point x="267" y="545"/>
			<point x="233" y="511"/>
			<point x="193" y="511" type="curve"/>
			<point x="151" y="511"/>
			<point x="118" y="547"/>
			<point x="118" y="588" type="curve"/>
			<point x="118" y="630"/>
			<point x="152" y="664"/>
			<point x="192" y="664" type="curve"/>
		</contour>
	</outline>
</glyph>
<glyph name="dieresisbelowcmb" format="1">
	<outline>
		<contour>
			<point x="-127" y="-127" type="line"/>
			<point x="-127" y="-219" type="line"/>
			<point x="-64" y="-219" type="line"/>
			<point x="-64" y="-127" type="line"/>
		</contour>
		<contour>
			<point x="63" y="-127" type="line"/>
			<point x="63" y="-219" type="line"/>
			<point x="126" y="-219" type="line"/>
			<point x="126" y="-127" type="line"/>
		</contour>
	</outline>
</glyph>
<glyph name="dieresiscmb" format="1">
	<outline>
		<contour>
			<point x="-127" y="694" type="line"/>
			<point x="-127" y="602" type="line"/>
			<point x="-64" y="602" type="line"/>
			<point x="-64" y="694" type="line"/>
		</contour>
		<contour>
			<point x="63" y="694" type="line"/>
			<point x="63" y="602" type="line"/>
			<point x="126" y="602" type="line"/>
			<point x="126" y="694" type="line"/>
		</contour>
	</outline>
</glyph>
<glyph name="divide" format="1">
	<advance width="635"/>
	<outline>
		<contour>
			<point x="318" y="472" type="line"/>
			<point x="295" y="472"/>
			<point x="277" y="453"/>
			<point x="277" y="430" type="curve"/>
			<point x="277" y="407"/>
			<point x="295" y="388"/>
			<point x="318" y="388" type="curve"/>
			<point x="340" y="388"/>
			<point x="358" y="407"/>
			<point x="358" y="430" type="curve"/>
			<point x="358" y="453"/>
			<point x="340" y="472"/>
			<point x="319" y="472" type="curve"/>
		</contour>
		<contour>
			<point x="91" y="237" type="line"/>
			<point x="547" y="237" type="line"/>
			<point x="547" y="296" type="line"/>
			<point x="91" y="296" type="line"/>
		</contour>
		<contour>
			<point x="319" y="145" type="line"/>
			<point x="296" y="145"/>
			<point x="278" y="126"/>
			<point x="278" y="103" type="curve"/>
			<point x="278" y="80"/>
			<point x="296" y="61"/>
			<point x="319" y="61" type="curve"/>
			<point x="341" y="61"/>
			<point x="359" y="80"/>
			<point x="359" y="103" type="curve"/>
			<point x="359" y="126"/>
			<point x="341" y="145"/>
			<point x="320" y="145" type="curve"/>
		</contour>
	</outline>
</glyph>
<glyph name="dollar" format="1">
	<advance width="625"/>
	<outline>
		<contour>
			<point x="337" y="628" type="line"/>
			<point x="405" y="624"/>
			<point x="434" y="587"/>
			<point x="447" y="548" type="curve"/>
			<point x="529" y="553" type="line"/>
			<point x="507" y="629"/>
			<point x="450" y="679"/>
			<point x="337" y="685" type="curve"/>
			<point x="337" y="761" type="line"/>
			<point x="287" y="761" type="line"/>
			<point x="287" y="685" type="line"/>
			<point x="126" y="680"/>
			<point x="81" y="603"/>
			<point x="81" y="526" type="curve"/>
			<point x="81" y="399"/>
			<point x="201" y="370"/>
			<point x="287" y="332" type="curve"/>
			<point x="287" y="70" type="line"/>
			<point x="222" y="74"/>
			<point x="177" y="102"/>
			<point x="151" y="158" type="curve"/>
			<point x="69" y="151" type="line"/>
			<point x="98" y="62"/>
			<point x="174" y="16"/>
			<point x="287" y="13" type="curve"/>
			<point x="287" y="-71" type="line"/>
			<point x="337" y="-71" type="line"/>
			<point x="337" y="13" type="line"/>
			<point x="476" y="21"/>
			<point x="554" y="102"/>
			<point x="554" y="201" type="curve"/>
			<point x="554" y="327"/>
			<point x="422" y="363"/>
			<point x="337" y="401" type="curve"/>
		</contour>
		<contour>
			<point x="287" y="419" type="line"/>
			<point x="236" y="444"/>
			<point x="165" y="464"/>
			<point x="165" y="532" type="curve"/>
			<point x="165" y="577"/>
			<point x="187" y="622"/>
			<point x="287" y="628" type="curve"/>
		</contour>
		<contour>
			<point x="337" y="315" type="line"/>
			<point x="394" y="287"/>
			<point x="469" y="266"/>
			<point x="469" y="189" type="curve"/>
			<point x="469" y="128"/>
			<point x="419" y="75"/>
			<point x="337" y="70" type="curve"/>
		</contour>
	</outline>
</glyph>
<glyph name="dotaccent" format="1">
	<advance width="406"/>
	<outline>
		<contour>
			<point x="172" y="694" type="line"/>
			<point x="172" y="602" type="line"/>
			<point x="234" y="602" type="line"/>
			<point x="234" y="694" type="line"/>
		</contour>
	</outline>
</glyph>
<glyph name="dotlessi" format="1">
	<advance width="242"/>
	<outline>
		<contour>
			<point x="165" y="540" type="line"/>
			<point x="77" y="540" type="line"/>
			<point x="77" y="0" type="line"/>
			<point x="165" y="0" type="line"/>
		</contour>
	</outline>
</glyph>
<glyph name="eacute" format="1">
	<advance width="561"/>
	<outline>
		<contour>
			<point x="523" y="255" type="line"/>
			<point x="523" y="351"/>
			<point x="499" y="430"/>
			<point x="452" y="483" type="curve"/>
			<point x="409" y="530"/>
			<point x="353" y="552"/>
			<point x="287" y="552" type="curve"/>
			<point x="212" y="552"/>
			<point x="155" y="529"/>
			<point x="113" y="487" type="curve"/>
			<point x="66" y="440"/>
			<point x="42" y="366"/>
			<point x="42" y="274" type="curve"/>
			<point x="42" y="171"/>
			<point x="66" y="100"/>
			<point x="110" y="54" type="curve"/>
			<point x="154" y="7"/>
			<point x="218" y="-12"/>
			<point x="288" y="-12" type="curve"/>
			<point x="361" y="-12"/>
			<point x="411" y="7"/>
			<point x="449" y="34" type="curve"/>
			<point x="485" y="62"/>
			<point x="508" y="96"/>
			<point x="522" y="128" type="curve"/>
			<point x="430" y="136" type="line"/>
			<point x="400" y="73"/>
			<point x="354" y="41"/>
			<point x="288" y="41" type="curve"/>
			<point x="214" y="41"/>
			<point x="138" y="93"/>
			<point x="132" y="255" type="curve"/>
		</contour>
		<contour>
			<point x="132" y="304" type="line"/>
			<point x="139" y="443"/>
			<point x="205" y="499"/>
			<point x="286" y="499" type="curve"/>
			<point x="363" y="499"/>
			<point x="422" y="425"/>
			<point x="432" y="304" type="curve"/>
		</contour>
		<contour>
			<point x="448" y="693" type="line"/>
			<point x="345" y="693" type="line"/>
			<point x="247" y="587" type="line"/>
			<point x="309" y="587" type="line"/>
		</contour>
	</outline>
</glyph>
<glyph name="eight.superior" format="1">
	<advance width="454"/>
	<outline>
		<contour>
			<point x="157" y="590" type="line"/>
			<point x="113" y="584"/>
			<point x="70" y="561"/>
			<point x="70" y="500" type="curve"/>
			<point x="70" y="436"/>
			<point x="123" y="400"/>
			<point x="227" y="400" type="curve"/>
			<point x="337" y="400"/>
			<point x="384" y="439"/>
			<point x="384" y="500" type="curve"/>
			<point x="384" y="559"/>
			<point x="343" y="584"/>
			<point x="296" y="590" type="curve"/>
			<point x="296" y="591" type="line"/>
			<point x="341" y="597"/>
			<point x="373" y="620"/>
			<point x="373" y="671" type="curve"/>
			<point x="373" y="730"/>
			<point x="311" y="764"/>
			<point x="227" y="764" type="curve"/>
			<point x="135" y="764"/>
			<point x="80" y="726"/>
			<point x="80" y="671" type="curve"/>
			<point x="80" y="624"/>
			<point x="112" y="598"/>
			<point x="157" y="591" type="curve"/>
		</contour>
		<contour>
			<point x="150" y="663" type="line"/>
			<point x="150" y="695"/>
			<point x="175" y="715"/>
			<point x="227" y="715" type="curve"/>
			<point x="279" y="715"/>
			<point x="304" y="694"/>
			<point x="304" y="663" type="curve"/>
			<point x="304" y="628"/>
			<point x="267" y="612"/>
			<point x="227" y="612" type="curve"/>
			<point x="170" y="612"/>
			<point x="150" y="632"/>
			<point x="150" y="662" type="curve"/>
		</contour>
		<contour>
			<point x="142" y="505" type="curve"/>
			<point x="142" y="542"/>
			<point x="175" y="564"/>
			<point x="227" y="564" type="curve"/>
			<point x="285" y="564"/>
			<point x="312" y="541"/>
			<point x="312" y="505" type="curve"/>
			<point x="312" y="467"/>
			<point x="268" y="449"/>
			<point x="227" y="449" type="curve"/>
			<point x="181" y="449"/>
			<point x="142" y="467"/>
		</contour>
	</outline>
</glyph>
<glyph name="ellipsis" format="1">
	<advance width="953"/>
	<outline>
		<contour>
			<point x="117" y="115" type="line"/>
			<point x="117" y="0" type="line"/>
			<point x="201" y="0" type="line"/>
			<point x="201" y="115" type="line"/>
		</contour>
		<contour>
			<point x="435" y="115" type="line"/>
			<point x="435" y="0" type="line"/>
			<point x="518" y="0" type="line"/>
			<point x="518" y="115" type="line"/>
		</contour>
		<contour>
			<point x="752" y="115" type="line"/>
			<point x="752" y="0" type="line"/>
			<point x="836" y="0" type="line"/>
			<point x="836" y="115" type="line"/>
		</contour>
	</outline>
</glyph>
<glyph name="endash" format="1">
	<advance width="474"/>
	<outline>
		<contour>
			<point x="24" y="290" type="line"/>
			<point x="24" y="216" type="line"/>
			<point x="450" y="216" type="line"/>
			<point x="450" y="290" type="line"/>
		</contour>
	</outline>
</glyph>
<glyph name="equal" format="1">
	<advance width="635"/>
	<outline>
		<contour>
			<point x="90" y="323" type="line"/>
			<point x="546" y="323" type="line"/>
			<point x="546" y="381" type="line"/>
			<point x="90" y="381" type="line"/>
		</contour>
		<contour>
			<point x="90" y="151" type="line"/>
			<point x="546" y="151" type="line"/>
			<point x="546" y="209" type="line"/>
			<point x="90" y="209" type="line"/>
		</contour>
	</outline>
</glyph>
<glyph name="f" format="1">
	<advance width="401"/>
	<outline>
		<contour>
			<point x="433" y="715" type="line"/>
			<point x="416" y="726"/>
			<point x="398" y="733"/>
			<point x="379" y="738" type="curve"/>
			<point x="353" y="745"/>
			<point x="325" y="748"/>
			<point x="295" y="748" type="curve"/>
			<point x="237" y="748"/>
			<point x="194" y="735"/>
			<point x="164" y="712" type="curve"/>
			<point x="129" y="684"/>
			<point x="113" y="635"/>
			<point x="113" y="569" type="curve"/>
			<point x="113" y="540" type="line"/>
			<point x="34" y="540" type="line"/>
			<point x="34" y="481" type="line"/>
			<point x="113" y="481" type="line"/>
			<point x="113" y="0" type="line"/>
			<point x="200" y="0" type="line"/>
			<point x="200" y="481" type="line"/>
			<point x="359" y="481" type="line"/>
			<point x="359" y="540" type="line"/>
			<point x="200" y="540" type="line"/>
			<point x="200" y="569" type="line"/>
			<point x="200" y="619"/>
			<point x="214" y="652"/>
			<point x="236" y="669" type="curve"/>
			<point x="256" y="684"/>
			<point x="281" y="689"/>
			<point x="310" y="689" type="curve"/>
			<point x="335" y="689"/>
			<point x="358" y="685"/>
			<point x="377" y="679" type="curve"/>
			<point x="393" y="673"/>
			<point x="407" y="665"/>
			<point x="415" y="656" type="curve"/>
		</contour>
	</outline>
</glyph>
<glyph name="five" format="1">
	<advance width="678"/>
	<outline>
		<contour>
			<point x="112" y="336" type="line"/>
			<point x="190" y="323" type="line"/>
			<point x="218" y="360"/>
			<point x="262" y="388"/>
			<point x="332" y="388" type="curve"/>
			<point x="429" y="388"/>
			<point x="500" y="322"/>
			<point x="500" y="217" type="curve"/>
			<point x="500" y="106"/>
			<point x="432" y="50"/>
			<point x="329" y="50" type="curve"/>
			<point x="230" y="50"/>
			<point x="188" y="103"/>
			<point x="166" y="167" type="curve"/>
			<point x="76" y="154" type="line"/>
			<point x="108" y="63"/>
			<point x="184" y="-12"/>
			<point x="331" y="-12" type="curve"/>
			<point x="503" y="-12"/>
			<point x="590" y="83"/>
			<point x="590" y="221" type="curve"/>
			<point x="590" y="371"/>
			<point x="477" y="451"/>
			<point x="351" y="451" type="curve"/>
			<point x="283" y="451"/>
			<point x="234" y="429"/>
			<point x="201" y="404" type="curve"/>
			<point x="198" y="404" type="line"/>
			<point x="236" y="634" type="line"/>
			<point x="539" y="634" type="line"/>
			<point x="550" y="702" type="line"/>
			<point x="174" y="702" type="line"/>
		</contour>
	</outline>
</glyph>
<glyph name="five.superior" format="1">
	<advance width="465"/>
	<outline>
		<contour>
			<point x="94" y="567" type="line"/>
			<point x="157" y="558" type="line"/>
			<point x="172" y="573"/>
			<point x="192" y="584"/>
			<point x="226" y="584" type="curve"/>
			<point x="270" y="584"/>
			<point x="306" y="559"/>
			<point x="306" y="515" type="curve"/>
			<point x="306" y="471"/>
			<point x="279" y="448"/>
			<point x="225" y="448" type="curve"/>
			<point x="179" y="448"/>
			<point x="160" y="469"/>
			<point x="148" y="499" type="curve"/>
			<point x="76" y="489" type="line"/>
			<point x="98" y="438"/>
			<point x="143" y="400"/>
			<point x="228" y="400" type="curve"/>
			<point x="329" y="400"/>
			<point x="378" y="449"/>
			<point x="378" y="519" type="curve"/>
			<point x="378" y="599"/>
			<point x="306" y="634"/>
			<point x="243" y="634" type="curve"/>
			<point x="207" y="634"/>
			<point x="182" y="624"/>
			<point x="163" y="612" type="curve"/>
			<point x="161" y="612" type="line"/>
			<point x="177" y="705" type="line"/>
			<point x="345" y="705" type="line"/>
			<point x="355" y="757" type="line"/>
			<point x="129" y="757" type="line"/>
		</contour>
	</outline>
</glyph>
<glyph name="four.superior" format="1">
	<advance width="461"/>
	<outline>
		<contour>
			<point x="73" y="534" type="line"/>
			<point x="73" y="488" type="line"/>
			<point x="256" y="488" type="line"/>
			<point x="256" y="406" type="line"/>
			<point x="326" y="406" type="line"/>
			<point x="326" y="488" type="line"/>
			<point x="377" y="488" type="line"/>
			<point x="377" y="538" type="line"/>
			<point x="326" y="538" type="line"/>
			<point x="326" y="760" type="line"/>
			<point x="254" y="760" type="line"/>
		</contour>
		<contour>
			<point x="146" y="538" type="line"/>
			<point x="206" y="618" type="line"/>
			<point x="223" y="642"/>
			<point x="239" y="665"/>
			<point x="255" y="689" type="curve"/>
			<point x="257" y="689" type="line"/>
			<point x="256" y="665"/>
			<point x="256" y="639"/>
			<point x="256" y="614" type="curve"/>
			<point x="256" y="538" type="line"/>
		</contour>
	</outline>
</glyph>
<glyph name="g" format="1">
	<advance width="593"/>
	<outline>
		<contour>
			<point x="439" y="492" type="line"/>
			<point x="436" y="492" type="line"/>
			<point x="399" y="530"/>
			<point x="348" y="552"/>
			<point x="285" y="552" type="curve"/>
			<point x="120" y="552"/>
			<point x="43" y="439"/>
			<point x="43" y="269" type="curve"/>
			<point x="43" y="86"/>
			<point x="137" y="-12"/>
			<point x="280" y="-12" type="curve"/>
			<point x="358" y="-12"/>
			<point x="406" y="20"/>
			<point x="436" y="47" type="curve"/>
			<point x="437" y="47" type="line"/>
			<point x="437" y="13" type="line"/>
			<point x="437" y="-70"/>
			<point x="426" y="-121"/>
			<point x="400" y="-157" type="curve"/>
			<point x="373" y="-191"/>
			<point x="330" y="-207"/>
			<point x="291" y="-207" type="curve"/>
			<point x="254" y="-207"/>
			<point x="223" y="-199"/>
			<point x="201" y="-184" type="curve"/>
			<point x="174" y="-167"/>
			<point x="158" y="-146"/>
			<point x="148" y="-118" type="curve"/>
			<point x="57" y="-130" type="line"/>
			<point x="82" y="-178"/>
			<point x="117" y="-211"/>
			<point x="152" y="-231" type="curve"/>
			<point x="195" y="-256"/>
			<point x="243" y="-265"/>
			<point x="292" y="-265" type="curve"/>
			<point x="369" y="-265"/>
			<point x="432" y="-241"/>
			<point x="469" y="-196" type="curve"/>
			<point x="508" y="-145"/>
			<point x="525" y="-81"/>
			<point x="525" y="27" type="curve"/>
			<point x="525" y="540" type="line"/>
			<point x="437" y="540" type="line"/>
		</contour>
		<contour>
			<point x="133" y="268" type="line"/>
			<point x="133" y="390"/>
			<point x="172" y="488"/>
			<point x="297" y="488" type="curve"/>
			<point x="362" y="488"/>
			<point x="408" y="457"/>
			<point x="437" y="419" type="curve"/>
			<point x="437" y="122" type="line"/>
			<point x="404" y="85"/>
			<point x="360" y="51"/>
			<point x="293" y="51" type="curve"/>
			<point x="197" y="51"/>
			<point x="133" y="134"/>
			<point x="133" y="267" type="curve"/>
		</contour>
	</outline>
</glyph>
<glyph name="germandbls" format="1">
	<advance width="604"/>
	<outline>
		<contour>
			<point x="231" y="58" type="line"/>
			<point x="231" y="0" type="line"/>
			<point x="311" y="0" type="line"/>
			<point x="503" y="0"/>
			<point x="561" y="95"/>
			<point x="561" y="241" type="curve"/>
			<point x="561" y="384"/>
			<point x="477" y="440"/>
			<point x="372" y="451" type="curve"/>
			<point x="372" y="454" type="line"/>
			<point x="488" y="464"/>
			<point x="525" y="526"/>
			<point x="525" y="596" type="curve"/>
			<point x="525" y="684"/>
			<point x="456" y="750"/>
			<point x="299" y="750" type="curve"/>
			<point x="99" y="750"/>
			<point x="73" y="634"/>
			<point x="73" y="508" type="curve"/>
			<point x="73" y="0" type="line"/>
			<point x="161" y="0" type="line"/>
			<point x="161" y="522" type="line"/>
			<point x="161" y="617"/>
			<point x="183" y="692"/>
			<point x="300" y="692" type="curve"/>
			<point x="409" y="692"/>
			<point x="436" y="639"/>
			<point x="436" y="586" type="curve"/>
			<point x="436" y="509"/>
			<point x="378" y="476"/>
			<point x="267" y="476" type="curve"/>
			<point x="231" y="476" type="line"/>
			<point x="231" y="418" type="line"/>
			<point x="270" y="418" type="line"/>
			<point x="398" y="418"/>
			<point x="470" y="379"/>
			<point x="470" y="248" type="curve"/>
			<point x="470" y="116"/>
			<point x="413" y="58"/>
			<point x="292" y="58" type="curve"/>
		</contour>
	</outline>
</glyph>
<glyph name="grave" format="1">
	<advance width="406"/>
	<outline>
		<contour>
			<point x="37" y="693" type="line"/>
			<point x="176" y="587" type="line"/>
			<point x="238" y="587" type="line"/>
			<point x="140" y="693" type="line"/>
		</contour>
	</outline>
</glyph>
<glyph name="greater" format="1">
	<advance width="635"/>
	<outline>
		<contour>
			<point x="473" y="265" type="line"/>
			<point x="105" y="93" type="line"/>
			<point x="105" y="28" type="line"/>
			<point x="549" y="241" type="line"/>
			<point x="549" y="291" type="line"/>
			<point x="105" y="504" type="line"/>
			<point x="105" y="439" type="line"/>
			<point x="473" y="267" type="line"/>
		</contour>
	</outline>
</glyph>
<glyph name="guillemotleft" format="1">
	<advance width="476"/>
	<outline>
		<contour>
			<point x="109" y="251" type="line"/>
			<point x="109" y="254" type="line"/>
			<point x="232" y="379" type="line"/>
			<point x="232" y="458" type="line"/>
			<point x="50" y="281" type="line"/>
			<point x="50" y="225" type="line"/>
			<point x="232" y="47" type="line"/>
			<point x="232" y="127" type="line"/>
		</contour>
		<contour>
			<point x="289" y="251" type="line"/>
			<point x="289" y="254" type="line"/>
			<point x="413" y="379" type="line"/>
			<point x="413" y="458" type="line"/>
			<point x="231" y="281" type="line"/>
			<point x="231" y="225" type="line"/>
			<point x="413" y="47" type="line"/>
			<point x="413" y="127" type="line"/>
		</contour>
	</outline>
</glyph>
<glyph name="guillemotright" format="1">
	<advance width="476"/>
	<outline>
		<contour>
			<point x="246" y="281" type="line"/>
			<point x="64" y="458" type="line"/>
			<point x="64" y="379" type="line"/>
			<point x="187" y="254" type="line"/>
			<point x="187" y="251" type="line"/>
			<point x="64" y="127" type="line"/>
			<point x="64" y="47" type="line"/>
			<point x="246" y="225" type="line"/>
		</contour>
		<contour>
			<point x="426" y="281" type="line"/>
			<point x="244" y="458" type="line"/>
			<point x="244" y="379" type="line"/>
			<point x="368" y="254" type="line"/>
			<point x="368" y="251" type="line"/>
			<point x="244" y="127" type="line"/>
			<point x="244" y="47" type="line"/>
			<point x="426" y="225" type="line"/>
		</contour>
	</outline>
</glyph>
<glyph name="h" format="1">
	<advance width="591"/>
	<outline>
		<contour>
			<point x="523" y="0" type="line"/>
			<point x="523" y="371" type="line"/>
			<point x="523" y="435"/>
			<point x="510" y="477"/>
			<point x="486" y="507" type="curve"/>
			<point x="459" y="538"/>
			<point x="417" y="552"/>
			<point x="364" y="552" type="curve"/>
			<point x="328" y="552"/>
			<point x="293" y="543"/>
			<point x="261" y="528" type="curve"/>
			<point x="227" y="512"/>
			<point x="194" y="490"/>
			<point x="162" y="465" type="curve"/>
			<point x="159" y="465" type="line"/>
			<point x="159" y="738" type="line"/>
			<point x="72" y="738" type="line"/>
			<point x="72" y="0" type="line"/>
			<point x="159" y="0" type="line"/>
			<point x="159" y="392" type="line"/>
			<point x="185" y="420"/>
			<point x="224" y="447"/>
			<point x="253" y="462" type="curve"/>
			<point x="281" y="476"/>
			<point x="310" y="484"/>
			<point x="337" y="484" type="curve"/>
			<point x="375" y="484"/>
			<point x="398" y="471"/>
			<point x="413" y="452" type="curve"/>
			<point x="432" y="427"/>
			<point x="435" y="388"/>
			<point x="435" y="346" type="curve"/>
			<point x="435" y="0" type="line"/>
		</contour>
	</outline>
</glyph>
<glyph name="hyphen" format="1">
	<advance width="411"/>
	<outline>
		<contour>
			<point x="78" y="288" type="line"/>
			<point x="78" y="218" type="line"/>
			<point x="333" y="218" type="line"/>
			<point x="333" y="288" type="line"/>
		</contour>
	</outline>
</glyph>
<glyph name="iacute" format="1">
	<advance width="242"/>
	<outline>
		<contour>
			<point x="165" y="540" type="line"/>
			<point x="77" y="540" type="line"/>
			<point x="77" y="0" type="line"/>
			<point x="165" y="0" type="line"/>
		</contour>
		<contour>
			<point x="254" y="693" type="line"/>
			<point x="151" y="693" type="line"/>
			<point x="53" y="587" type="line"/>
			<point x="115" y="587" type="line"/>
		</contour>
	</outline>
</glyph>
<glyph name="j" format="1">
	<advance width="242"/>
	<outline>
		<contour>
			<point x="165" y="652" type="line"/>
			<point x="165" y="742" type="line"/>
			<point x="77" y="742" type="line"/>
			<point x="77" y="652" type="line"/>
		</contour>
		<contour>
			<point x="-176" y="-209" type="line"/>
			<point x="-152" y="-223"/>
			<point x="-129" y="-233"/>
			<point x="-104" y="-240" type="curve"/>
			<point x="-80" y="-247"/>
			<point x="-54" y="-251"/>
			<point x="-24" y="-251" type="curve"/>
			<point x="41" y="-251"/>
			<point x="91" y="-232"/>
			<point x="122" y="-193" type="curve"/>
			<point x="151" y="-156"/>
			<point x="165" y="-103"/>
			<point x="165" y="-16" type="curve"/>
			<point x="165" y="540" type="line"/>
			<point x="77" y="540" type="line"/>
			<point x="77" y="-26" type="line"/>
			<point x="77" y="-89"/>
			<point x="70" y="-128"/>
			<point x="53" y="-154" type="curve"/>
			<point x="32" y="-182"/>
			<point x="-3" y="-192"/>
			<point x="-33" y="-192" type="curve"/>
			<point x="-62" y="-192"/>
			<point x="-81" y="-185"/>
			<point x="-93" y="-180" type="curve"/>
			<point x="-113" y="-172"/>
			<point x="-129" y="-162"/>
			<point x="-145" y="-148" type="curve"/>
		</contour>
	</outline>
</glyph>
<glyph name="l" format="1">
	<advance width="242"/>
	<outline>
		<contour>
			<point x="165" y="0" type="line"/>
			<point x="165" y="738" type="line"/>
			<point x="77" y="738" type="line"/>
			<point x="77" y="0" type="line"/>
		</contour>
	</outline>
</glyph>
<glyph name="logicalnot" format="1">
	<advance width="635"/>
	<outline>
		<contour>
			<point x="546" y="381" type="line"/>
			<point x="90" y="381" type="line"/>
			<point x="90" y="323" type="line"/>
			<point x="487" y="323" type="line"/>
			<point x="487" y="137" type="line"/>
			<point x="546" y="137" type="line"/>
		</contour>
	</outline>
</glyph>
<glyph name="m" format="1">
	<advance width="876"/>
	<outline>
		<contour>
			<point x="809" y="0" type="line"/>
			<point x="809" y="378" type="line"/>
			<point x="809" y="439"/>
			<point x="797" y="482"/>
			<point x="772" y="510" type="curve"/>
			<point x="748" y="538"/>
			<point x="714" y="552"/>
			<point x="667" y="552" type="curve"/>
			<point x="632" y="552"/>
			<point x="602" y="545"/>
			<point x="570" y="530" type="curve"/>
			<point x="540" y="515"/>
			<point x="510" y="492"/>
			<point x="477" y="463" type="curve"/>
			<point x="474" y="463" type="line"/>
			<point x="468" y="483"/>
			<point x="455" y="509"/>
			<point x="435" y="524" type="curve"/>
			<point x="414" y="542"/>
			<point x="384" y="552"/>
			<point x="344" y="552" type="curve"/>
			<point x="314" y="552"/>
			<point x="282" y="545"/>
			<point x="253" y="531" type="curve"/>
			<point x="224" y="517"/>
			<point x="194" y="496"/>
			<point x="161" y="466" type="curve"/>
			<point x="158" y="466" type="line"/>
			<point x="159" y="540" type="line"/>
			<point x="72" y="540" type="line"/>
			<point x="72" y="0" type="line"/>
			<point x="159" y="0" type="line"/>
			<point x="159" y="392" type="line"/>
			<point x="187" y="421"/>
			<point x="214" y="444"/>
			<point x="240" y="460" type="curve"/>
			<point x="268" y="476"/>
			<point x="292" y="483"/>
			<point x="314" y="483" type="curve"/>
			<point x="340" y="483"/>
			<point x="359" y="474"/>
			<point x="373" y="458" type="curve"/>
			<point x="390" y="437"/>
			<point x="396" y="404"/>
			<point x="396" y="360" type="curve"/>
			<point x="396" y="0" type="line"/>
			<point x="484" y="0" type="line"/>
			<point x="484" y="393" type="line"/>
			<point x="513" y="424"/>
			<point x="540" y="445"/>
			<point x="565" y="460" type="curve"/>
			<point x="591" y="475"/>
			<point x="616" y="483"/>
			<point x="637" y="483" type="curve"/>
			<point x="667" y="483"/>
			<point x="687" y="473"/>
			<point x="700" y="456" type="curve"/>
			<point x="717" y="432"/>
			<point x="721" y="393"/>
			<point x="721" y="355" type="curve"/>
			<point x="721" y="0" type="line"/>
		</contour>
	</outline>
</glyph>
<glyph name="minus" format="1">
	<advance width="635"/>
	<outline>
		<contour>
			<point x="90" y="237" type="line"/>
			<point x="546" y="237" type="line"/>
			<point x="546" y="295" type="line"/>
			<point x="90" y="295" type="line"/>
		</contour>
	</outline>
</glyph>
<glyph name="mu" format="1">
	<advance width="595"/>
	<outline>
		<contour>
			<point x="155" y="540" type="line"/>
			<point x="67" y="540" type="line"/>
			<point x="67" y="-252" type="line"/>
			<point x="155" y="-252" type="line"/>
			<point x="155" y="29" type="line"/>
			<point x="157" y="29" type="line"/>
			<point x="164" y="21"/>
			<point x="170" y="16"/>
			<point x="179" y="11" type="curve"/>
			<point x="196" y="-3"/>
			<point x="225" y="-11"/>
			<point x="258" y="-11" type="curve"/>
			<point x="285" y="-11"/>
			<point x="321" y="-1"/>
			<point x="352" y="15" type="curve"/>
			<point x="382" y="32"/>
			<point x="406" y="52"/>
			<point x="434" y="74" type="curve"/>
			<point x="437" y="74" type="line"/>
			<point x="436" y="0" type="line"/>
			<point x="524" y="0" type="line"/>
			<point x="524" y="540" type="line"/>
			<point x="436" y="540" type="line"/>
			<point x="436" y="146" type="line"/>
			<point x="408" y="116"/>
			<point x="375" y="94"/>
			<point x="347" y="79" type="curve"/>
			<point x="317" y="64"/>
			<point x="285" y="56"/>
			<point x="256" y="56" type="curve"/>
			<point x="217" y="56"/>
			<point x="192" y="70"/>
			<point x="178" y="88" type="curve"/>
			<point x="158" y="113"/>
			<point x="155" y="151"/>
			<point x="155" y="194" type="curve"/>
		</contour>
	</outline>
</glyph>
<glyph name="multiply" format="1">
	<advance width="635"/>
	<outline>
		<contour>
			<point x="317" y="224" type="line"/>
			<point x="485" y="54" type="line"/>
			<point x="525" y="96" type="line"/>
			<point x="357" y="266" type="line"/>
			<point x="525" y="436" type="line"/>
			<point x="485" y="477" type="line"/>
			<point x="317" y="307" type="line"/>
			<point x="150" y="477" type="line"/>
			<point x="110" y="436" type="line"/>
			<point x="278" y="266" type="line"/>
			<point x="110" y="96" type="line"/>
			<point x="150" y="54" type="line"/>
		</contour>
	</outline>
</glyph>
<glyph name="numbersign" format="1">
	<advance width="591"/>
	<outline>
		<contour>
			<point x="318" y="236" type="line"/>
			<point x="251" y="0" type="line"/>
			<point x="306" y="0" type="line"/>
			<point x="373" y="236" type="line"/>
			<point x="496" y="236" type="line"/>
			<point x="510" y="287" type="line"/>
			<point x="387" y="287" type="line"/>
			<point x="428" y="430" type="line"/>
			<point x="551" y="430" type="line"/>
			<point x="565" y="481" type="line"/>
			<point x="442" y="481" type="line"/>
			<point x="506" y="706" type="line"/>
			<point x="451" y="706" type="line"/>
			<point x="387" y="481" type="line"/>
			<point x="274" y="481" type="line"/>
			<point x="338" y="706" type="line"/>
			<point x="282" y="706" type="line"/>
			<point x="218" y="481" type="line"/>
			<point x="95" y="481" type="line"/>
			<point x="81" y="430" type="line"/>
			<point x="204" y="430" type="line"/>
			<point x="163" y="287" type="line"/>
			<point x="41" y="287" type="line"/>
			<point x="26" y="236" type="line"/>
			<point x="149" y="236" type="line"/>
			<point x="82" y="0" type="line"/>
			<point x="137" y="0" type="line"/>
			<point x="204" y="236" type="line"/>
		</contour>
		<contour>
			<point x="332" y="287" type="line"/>
			<point x="218" y="287" type="line"/>
			<point x="259" y="430" type="line"/>
			<point x="373" y="430" type="line"/>
		</contour>
	</outline>
</glyph>
<glyph name="ogonek" format="1">
	<advance width="406"/>
	<outline>
		<contour>
			<point x="287" y="-88" type="line"/>
			<point x="271" y="-103"/>
			<point x="250" y="-112"/>
			<point x="227" y="-112" type="curve"/>
			<point x="198" y="-112"/>
			<point x="183" y="-96"/>
			<point x="183" y="-77" type="curve"/>
			<point x="183" y="-58"/>
			<point x="193" y="-42"/>
			<point x="212" y="-24" type="curve"/>
			<point x="236" y="0" type="line"/>
			<point x="177" y="0" type="line"/>
			<point x="159" y="-17" type="line"/>
			<point x="134" y="-39"/>
			<point x="122" y="-63"/>
			<point x="122" y="-87" type="curve"/>
			<point x="122" y="-128"/>
			<point x="156" y="-155"/>
			<point x="209" y="-155" type="curve"/>
			<point x="256" y="-155"/>
			<point x="291" y="-134"/>
			<point x="313" y="-110" type="curve"/>
		</contour>
	</outline>
</glyph>
<glyph name="ograve" format="1">
	<advance width="596"/>
	<outline>
		<contour>
			<point x="554" y="270" type="line"/>
			<point x="554" y="468"/>
			<point x="449" y="552"/>
			<point x="298" y="552" type="curve"/>
			<point x="147" y="552"/>
			<point x="42" y="468"/>
			<point x="42" y="270" type="curve"/>
			<point x="42" y="93"/>
			<point x="124" y="-12"/>
			<point x="298" y="-12" type="curve"/>
			<point x="469" y="-12"/>
			<point x="554" y="95"/>
			<point x="554" y="269" type="curve"/>
		</contour>
		<contour>
			<point x="298" y="45" type="line"/>
			<point x="198" y="45"/>
			<point x="132" y="117"/>
			<point x="132" y="269" type="curve"/>
			<point x="132" y="430"/>
			<point x="211" y="493"/>
			<point x="298" y="493" type="curve"/>
			<point x="385" y="493"/>
			<point x="464" y="431"/>
			<point x="464" y="269" type="curve"/>
			<point x="464" y="123"/>
			<point x="399" y="45"/>
			<point x="299" y="45" type="curve"/>
		</contour>
		<contour>
			<point x="132" y="693" type="line"/>
			<point x="271" y="587" type="line"/>
			<point x="333" y="587" type="line"/>
			<point x="235" y="693" type="line"/>
		</contour>
	</outline>
</glyph>
<glyph name="one.superior" format="1">
	<advance width="459"/>
	<outline>
		<contour>
			<point x="84" y="694" type="line"/>
			<point x="108" y="641" type="line"/>
			<point x="191" y="683" type="line"/>
			<point x="191" y="406" type="line"/>
			<point x="261" y="406" type="line"/>
			<point x="261" y="760" type="line"/>
			<point x="214" y="760" type="line"/>
		</contour>
	</outline>
</glyph>
<glyph name="ordmasculine" format="1">
	<advance width="393"/>
	<outline>
		<contour>
			<point x="34" y="549" type="line"/>
			<point x="34" y="462"/>
			<point x="92" y="383"/>
			<point x="197" y="383" type="curve"/>
			<point x="304" y="383"/>
			<point x="361" y="462"/>
			<point x="361" y="549" type="curve"/>
			<point x="361" y="632"/>
			<point x="309" y="715"/>
			<point x="197" y="715" type="curve"/>
			<point x="85" y="715"/>
			<point x="34" y="632"/>
			<point x="34" y="550" type="curve"/>
		</contour>
		<contour>
			<point x="197" y="677" type="line"/>
			<point x="254" y="677"/>
			<point x="293" y="619"/>
			<point x="293" y="550" type="curve"/>
			<point x="293" y="481"/>
			<point x="254" y="423"/>
			<point x="197" y="423" type="curve"/>
			<point x="140" y="423"/>
			<point x="101" y="481"/>
			<point x="101" y="550" type="curve"/>
			<point x="101" y="619"/>
			<point x="140" y="677"/>
			<point x="196" y="677" type="curve"/>
		</contour>
	</outline>
</glyph>
<glyph name="oslash" format="1">
	<advance width="595"/>
	<outline>
		<contour>
			<point x="575" y="534" type="line"/>
			<point x="550" y="561" type="line"/>
			<point x="473" y="478" type="line"/>
			<point x="439" y="517"/>
			<point x="382" y="552"/>
			<point x="299" y="552" type="curve"/>
			<point x="147" y="552"/>
			<point x="42" y="468"/>
			<point x="42" y="269" type="curve"/>
			<point x="42" y="202"/>
			<point x="57" y="138"/>
			<point x="94" y="87" type="curve"/>
			<point x="17" y="4" type="line"/>
			<point x="42" y="-24" type="line"/>
			<point x="122" y="59" type="line"/>
			<point x="154" y="24"/>
			<point x="209" y="-13"/>
			<point x="298" y="-13" type="curve"/>
			<point x="469" y="-13"/>
			<point x="554" y="95"/>
			<point x="554" y="269" type="curve"/>
			<point x="554" y="343"/>
			<point x="534" y="403"/>
			<point x="500" y="452" type="curve"/>
		</contour>
		<contour>
			<point x="154" y="143" type="line"/>
			<point x="143" y="170"/>
			<point x="130" y="216"/>
			<point x="130" y="275" type="curve"/>
			<point x="131" y="425"/>
			<point x="207" y="494"/>
			<point x="299" y="494" type="curve"/>
			<point x="328" y="494"/>
			<point x="352" y="489"/>
			<point x="372" y="480" type="curve"/>
			<point x="395" y="469"/>
			<point x="412" y="449"/>
			<point x="423" y="428" type="curve"/>
		</contour>
		<contour>
			<point x="441" y="396" type="line"/>
			<point x="453" y="369"/>
			<point x="466" y="323"/>
			<point x="466" y="265" type="curve"/>
			<point x="465" y="130"/>
			<point x="402" y="45"/>
			<point x="297" y="45" type="curve"/>
			<point x="269" y="45"/>
			<point x="245" y="50"/>
			<point x="226" y="59" type="curve"/>
			<point x="203" y="70"/>
			<point x="185" y="89"/>
			<point x="173" y="110" type="curve"/>
		</contour>
	</outline>
</glyph>
<glyph name="paragraph" format="1">
	<advance width="570"/>
	<outline>
		<contour>
			<point x="241" y="-140" type="line"/>
			<point x="298" y="-140" type="line"/>
			<point x="298" y="674" type="line"/>
			<point x="393" y="674" type="line"/>
			<point x="393" y="-140" type="line"/>
			<point x="451" y="-140" type="line"/>
			<point x="451" y="719" type="line"/>
			<point x="248" y="719" type="line"/>
			<point x="174" y="719"/>
			<point x="124" y="700"/>
			<point x="89" y="663" type="curve"/>
			<point x="53" y="625"/>
			<point x="35" y="573"/>
			<point x="35" y="516" type="curve"/>
			<point x="35" y="451"/>
			<point x="57" y="400"/>
			<point x="93" y="366" type="curve"/>
			<point x="129" y="331"/>
			<point x="181" y="313"/>
			<point x="241" y="312" type="curve"/>
		</contour>
	</outline>
</glyph>
<glyph name="parenleft" format="1">
	<advance width="386"/>
	<outline>
		<contour>
			<point x="350" y="-146" type="line"/>
			<point x="308" y="-101"/>
			<point x="272" y="-53"/>
			<point x="246" y="8" type="curve"/>
			<point x="207" y="106"/>
			<point x="198" y="208"/>
			<point x="198" y="296" type="curve"/>
			<point x="198" y="399"/>
			<point x="210" y="498"/>
			<point x="246" y="583" type="curve"/>
			<point x="273" y="647"/>
			<point x="309" y="695"/>
			<point x="351" y="738" type="curve"/>
			<point x="323" y="778" type="line"/>
			<point x="263" y="734"/>
			<point x="218" y="688"/>
			<point x="179" y="618" type="curve"/>
			<point x="133" y="533"/>
			<point x="108" y="426"/>
			<point x="108" y="296" type="curve"/>
			<point x="107" y="171"/>
			<point x="129" y="65"/>
			<point x="175" y="-23" type="curve"/>
			<point x="215" y="-95"/>
			<point x="264" y="-143"/>
			<point x="322" y="-187" type="curve"/>
		</contour>
	</outline>
</glyph>
<glyph name="percent" format="1">
	<advance width="816"/>
	<outline>
		<contour>
			<point x="359" y="541" type="line"/>
			<point x="359" y="654"/>
			<point x="300" y="725"/>
			<point x="200" y="725" type="curve"/>
			<point x="99" y="725"/>
			<point x="40" y="654"/>
			<point x="40" y="541" type="curve"/>
			<point x="40" y="431"/>
			<point x="99" y="358"/>
			<point x="200" y="358" type="curve"/>
			<point x="299" y="358"/>
			<point x="359" y="430"/>
			<point x="359" y="540" type="curve"/>
		</contour>
		<contour>
			<point x="662" y="722" type="line"/>
			<point x="589" y="722" type="line"/>
			<point x="152" y="-10" type="line"/>
			<point x="226" y="-10" type="line"/>
		</contour>
		<contour>
			<point x="200" y="406" type="line"/>
			<point x="141" y="406"/>
			<point x="106" y="461"/>
			<point x="106" y="541" type="curve"/>
			<point x="106" y="621"/>
			<point x="141" y="675"/>
			<point x="200" y="675" type="curve"/>
			<point x="258" y="675"/>
			<point x="293" y="621"/>
			<point x="293" y="541" type="curve"/>
			<point x="293" y="461"/>
			<point x="259" y="406"/>
			<point x="201" y="406" type="curve"/>
		</contour>
		<contour>
			<point x="777" y="170" type="line"/>
			<point x="777" y="283"/>
			<point x="718" y="354"/>
			<point x="618" y="354" type="curve"/>
			<point x="517" y="354"/>
			<point x="458" y="283"/>
			<point x="458" y="170" type="curve"/>
			<point x="458" y="60"/>
			<point x="517" y="-14"/>
			<point x="618" y="-14" type="curve"/>
			<point x="718" y="-14"/>
			<point x="777" y="59"/>
			<point x="777" y="169" type="curve"/>
		</contour>
		<contour>
			<point x="618" y="35" type="line"/>
			<point x="559" y="35"/>
			<point x="524" y="89"/>
			<point x="524" y="169" type="curve"/>
			<point x="524" y="250"/>
			<point x="559" y="303"/>
			<point x="618" y="303" type="curve"/>
			<point x="676" y="303"/>
			<point x="711" y="250"/>
			<point x="711" y="169" type="curve"/>
			<point x="711" y="90"/>
			<point x="677" y="35"/>
			<point x="619" y="35" type="curve"/>
		</contour>
	</outline>
</glyph>
<glyph name="period" format="1">
	<advance width="240"/>
	<outline>
		<contour>
			<point x="78" y="112" type="line"/>
			<point x="78" y="0" type="line"/>
			<point x="162" y="0" type="line"/>
			<point x="162" y="112" type="line"/>
		</contour>
	</outline>
</glyph>
<glyph name="periodcentered" format="1">
	<advance width="240"/>
	<outline>
		<contour>
			<point x="120" y="308" type="line"/>
			<point x="97" y="308"/>
			<point x="79" y="289"/>
			<point x="79" y="266" type="curve"/>
			<point x="79" y="242"/>
			<point x="97" y="224"/>
			<point x="120" y="224" type="curve"/>
			<point x="142" y="224"/>
			<point x="161" y="242"/>
			<point x="161" y="266" type="curve"/>
			<point x="161" y="289"/>
			<point x="142" y="308"/>
			<point x="121" y="308" type="curve"/>
		</contour>
	</outline>
</glyph>
<glyph name="plus" format="1">
	<advance width="635"/>
	<outline>
		<contour>
			<point x="347" y="237" type="line"/>
			<point x="546" y="237" type="line"/>
			<point x="546" y="295" type="line"/>
			<point x="347" y="295" type="line"/>
			<point x="347" y="485" type="line"/>
			<point x="288" y="485" type="line"/>
			<point x="288" y="295" type="line"/>
			<point x="90" y="295" type="line"/>
			<point x="90" y="237" type="line"/>
			<point x="288" y="237" type="line"/>
			<point x="288" y="35" type="line"/>
			<point x="347" y="35" type="line"/>
		</contour>
	</outline>
</glyph>
<glyph name="plusminus" format="1">
	<advance width="635"/>
	<outline>
		<contour>
			<point x="347" y="278" type="line"/>
			<point x="546" y="278" type="line"/>
			<point x="546" y="336" type="line"/>
			<point x="347" y="336" type="line"/>
			<point x="347" y="509" type="line"/>
			<point x="288" y="509" type="line"/>
			<point x="288" y="336" type="line"/>
			<point x="90" y="336" type="line"/>
			<point x="90" y="278" type="line"/>
			<point x="288" y="278" type="line"/>
			<point x="288" y="104" type="line"/>
			<point x="347" y="104" type="line"/>
		</contour>
		<contour>
			<point x="90" y="0" type="line"/>
			<point x="546" y="0" type="line"/>
			<point x="546" y="58" type="line"/>
			<point x="90" y="58" type="line"/>
		</contour>
	</outline>
</glyph>
<glyph name="question" format="1">
	<advance width="508"/>
	<outline>
		<contour>
			<point x="274" y="190" type="line"/>
			<point x="272" y="269"/>
			<point x="300" y="325"/>
			<point x="376" y="381" type="curve"/>
			<point x="445" y="436"/>
			<point x="479" y="483"/>
			<point x="479" y="564" type="curve"/>
			<point x="479" y="660"/>
			<point x="403" y="728"/>
			<point x="258" y="728" type="curve"/>
			<point x="118" y="728"/>
			<point x="45" y="665"/>
			<point x="15" y="561" type="curve"/>
			<point x="103" y="550" type="line"/>
			<point x="122" y="618"/>
			<point x="168" y="666"/>
			<point x="255" y="666" type="curve"/>
			<point x="330" y="666"/>
			<point x="389" y="638"/>
			<point x="389" y="561" type="curve"/>
			<point x="389" y="502"/>
			<point x="356" y="466"/>
			<point x="298" y="411" type="curve"/>
			<point x="217" y="335"/>
			<point x="198" y="273"/>
			<point x="204" y="190" type="curve"/>
		</contour>
		<contour>
			<point x="199" y="112" type="line"/>
			<point x="199" y="0" type="line"/>
			<point x="282" y="0" type="line"/>
			<point x="282" y="112" type="line"/>
		</contour>
	</outline>
</glyph>
<glyph name="questiondown" format="1">
	<advance width="509"/>
	<outline>
		<contour>
			<point x="299" y="386" type="line"/>
			<point x="299" y="497" type="line"/>
			<point x="216" y="497" type="line"/>
			<point x="216" y="386" type="line"/>
		</contour>
		<contour>
			<point x="224" y="307" type="line"/>
			<point x="226" y="229"/>
			<point x="198" y="173"/>
			<point x="122" y="116" type="curve"/>
			<point x="52" y="62"/>
			<point x="19" y="14"/>
			<point x="19" y="-66" type="curve"/>
			<point x="19" y="-162"/>
			<point x="95" y="-230"/>
			<point x="240" y="-230" type="curve"/>
			<point x="378" y="-230"/>
			<point x="452" y="-169"/>
			<point x="482" y="-64" type="curve"/>
			<point x="394" y="-55" type="line"/>
			<point x="374" y="-122"/>
			<point x="325" y="-168"/>
			<point x="243" y="-168" type="curve"/>
			<point x="168" y="-168"/>
			<point x="109" y="-141"/>
			<point x="109" y="-63" type="curve"/>
			<point x="109" y="-4"/>
			<point x="142" y="31"/>
			<point x="199" y="86" type="curve"/>
			<point x="281" y="163"/>
			<point x="300" y="225"/>
			<point x="294" y="307" type="curve"/>
		</contour>
	</outline>
</glyph>
<glyph name="quotedbl" format="1">
	<advance width="376"/>
	<outline>
		<contour>
			<point x="67" y="722" type="line"/>
			<point x="85" y="500" type="line"/>
			<point x="133" y="500" type="line"/>
			<point x="150" y="722" type="line"/>
		</contour>
		<contour>
			<point x="226" y="722" type="line"/>
			<point x="243" y="500" type="line"/>
			<point x="292" y="500" type="line"/>
			<point x="309" y="722" type="line"/>
		</contour>
	</outline>
</glyph>
<glyph name="quotedblbase" format="1">
	<advance width="376"/>
	<outline>
		<contour>
			<point x="59" y="-105" type="line"/>
			<point x="109" y="-105" type="line"/>
			<point x="178" y="115" type="line"/>
			<point x="90" y="115" type="line"/>
		</contour>
		<contour>
			<point x="220" y="-105" type="line"/>
			<point x="269" y="-105" type="line"/>
			<point x="338" y="115" type="line"/>
			<point x="251" y="115" type="line"/>
		</contour>
	</outline>
</glyph>
<glyph name="quotedblright" format="1">
	<advance width="376"/>
	<outline>
		<contour>
			<point x="59" y="502" type="line"/>
			<point x="108" y="502" type="line"/>
			<point x="178" y="722" type="line"/>
			<point x="90" y="722" type="line"/>
		</contour>
		<contour>
			<point x="219" y="502" type="line"/>
			<point x="269" y="502" type="line"/>
			<point x="338" y="722" type="line"/>
			<point x="250" y="722" type="line"/>
		</contour>
	</outline>
</glyph>
<glyph name="quotesinglbase" format="1">
	<advance width="214"/>
	<outline>
		<contour>
			<point x="59" y="-105" type="line"/>
			<point x="109" y="-105" type="line"/>
			<point x="178" y="115" type="line"/>
			<point x="90" y="115" type="line"/>
		</contour>
	</outline>
</glyph>
<glyph name="ring" format="1">
	<advance width="406"/>
	<outline>
		<contour>
			<point x="203" y="583" type="line"/>
			<point x="247" y="583"/>
			<point x="289" y="607"/>
			<point x="289" y="650" type="curve"/>
			<point x="289" y="694"/>
			<point x="247" y="718"/>
			<point x="203" y="718" type="curve"/>
			<point x="159" y="718"/>
			<point x="117" y="694"/>
			<point x="117" y="650" type="curve"/>
			<point x="117" y="607"/>
			<point x="159" y="583"/>
			<point x="202" y="583" type="curve"/>
		</contour>
		<contour>
			<point x="202" y="616" type="line"/>
			<point x="175" y="616"/>
			<point x="158" y="631"/>
			<point x="158" y="650" type="curve"/>
			<point x="158" y="672"/>
			<point x="178" y="685"/>
			<point x="202" y="685" type="curve"/>
			<point x="226" y="685"/>
			<point x="246" y="672"/>
			<point x="246" y="650" type="curve"/>
			<point x="246" y="631"/>
			<point x="230" y="616"/>
			<point x="203" y="616" type="curve"/>
		</contour>
	</outline>
</glyph>
<glyph name="s" format="1">
	<advance width="490"/>
	<outline>
		<contour>
			<point x="433" y="451" type="line"/>
			<point x="422" y="481"/>
			<point x="401" y="504"/>
			<point x="374" y="521" type="curve"/>
			<point x="340" y="542"/>
			<point x="297" y="552"/>
			<point x="247" y="552" type="curve"/>
			<point x="183" y="552"/>
			<point x="139" y="540"/>
			<point x="104" y="518" type="curve"/>
			<point x="68" y="495"/>
			<point x="47" y="458"/>
			<point x="47" y="412" type="curve"/>
			<point x="47" y="379"/>
			<point x="58" y="349"/>
			<point x="81" y="324" type="curve"/>
			<point x="107" y="296"/>
			<point x="141" y="280"/>
			<point x="212" y="260" type="curve"/>
			<point x="283" y="242"/>
			<point x="316" y="229"/>
			<point x="337" y="207" type="curve"/>
			<point x="355" y="189"/>
			<point x="363" y="166"/>
			<point x="363" y="144" type="curve"/>
			<point x="363" y="111"/>
			<point x="353" y="86"/>
			<point x="335" y="69" type="curve"/>
			<point x="312" y="49"/>
			<point x="278" y="40"/>
			<point x="244" y="40" type="curve"/>
			<point x="183" y="40"/>
			<point x="137" y="65"/>
			<point x="119" y="104" type="curve"/>
			<point x="37" y="94" type="line"/>
			<point x="55" y="57"/>
			<point x="81" y="29"/>
			<point x="115" y="14" type="curve"/>
			<point x="151" y="-5"/>
			<point x="195" y="-12"/>
			<point x="246" y="-12" type="curve"/>
			<point x="312" y="-12"/>
			<point x="364" y="6"/>
			<point x="400" y="36" type="curve"/>
			<point x="436" y="67"/>
			<point x="453" y="105"/>
			<point x="453" y="155" type="curve"/>
			<point x="453" y="196"/>
			<point x="439" y="228"/>
			<point x="418" y="250" type="curve"/>
			<point x="392" y="278"/>
			<point x="354" y="296"/>
			<point x="279" y="317" type="curve"/>
			<point x="203" y="340"/>
			<point x="181" y="348"/>
			<point x="160" y="367" type="curve"/>
			<point x="142" y="382"/>
			<point x="133" y="402"/>
			<point x="133" y="423" type="curve"/>
			<point x="133" y="449"/>
			<point x="144" y="468"/>
			<point x="161" y="481" type="curve"/>
			<point x="182" y="495"/>
			<point x="214" y="501"/>
			<point x="245" y="501" type="curve"/>
			<point x="306" y="501"/>
			<point x="343" y="472"/>
			<point x="356" y="441" type="curve"/>
		</contour>
	</outline>
</glyph>
<glyph name="seven" format="1">
	<advance width="626"/>
	<outline>
		<contour>
			<point x="534" y="702" type="line"/>
			<point x="81" y="702" type="line"/>
			<point x="81" y="631" type="line"/>
			<point x="432" y="631" type="line"/>
			<point x="432" y="628" type="line"/>
			<point x="193" y="0" type="line"/>
			<point x="294" y="0" type="line"/>
			<point x="534" y="678" type="line"/>
		</contour>
	</outline>
</glyph>
<glyph name="seven.superior" format="1">
	<advance width="431"/>
	<outline>
		<contour>
			<point x="339" y="757" type="line"/>
			<point x="81" y="757" type="line"/>
			<point x="81" y="702" type="line"/>
			<point x="258" y="702" type="line"/>
			<point x="258" y="701" type="line"/>
			<point x="136" y="406" type="line"/>
			<point x="218" y="406" type="line"/>
			<point x="339" y="740" type="line"/>
		</contour>
	</outline>
</glyph>
<glyph name="slash" format="1">
	<advance width="501"/>
	<outline>
		<contour>
			<point x="472" y="750" type="line"/>
			<point x="402" y="750" type="line"/>
			<point x="37" y="-12" type="line"/>
			<point x="108" y="-12" type="line"/>
		</contour>
	</outline>
</glyph>
<glyph name="three" format="1">
	<advance width="676"/>
	<outline>
		<contour>
			<point x="286" y="337" type="line"/>
			<point x="436" y="330"/>
			<point x="499" y="277"/>
			<point x="499" y="187" type="curve"/>
			<point x="499" y="113"/>
			<point x="450" y="51"/>
			<point x="337" y="51" type="curve"/>
			<point x="236" y="51"/>
			<point x="192" y="107"/>
			<point x="176" y="166" type="curve"/>
			<point x="82" y="155" type="line"/>
			<point x="104" y="66"/>
			<point x="175" y="-13"/>
			<point x="338" y="-13" type="curve"/>
			<point x="506" y="-13"/>
			<point x="588" y="67"/>
			<point x="588" y="188" type="curve"/>
			<point x="588" y="308"/>
			<point x="506" y="365"/>
			<point x="395" y="374" type="curve"/>
			<point x="395" y="375" type="line"/>
			<point x="507" y="391"/>
			<point x="559" y="458"/>
			<point x="559" y="544" type="curve"/>
			<point x="559" y="650"/>
			<point x="475" y="715"/>
			<point x="333" y="715" type="curve"/>
			<point x="189" y="715"/>
			<point x="118" y="641"/>
			<point x="102" y="559" type="curve"/>
			<point x="195" y="550" type="line"/>
			<point x="204" y="600"/>
			<point x="239" y="652"/>
			<point x="337" y="652" type="curve"/>
			<point x="436" y="652"/>
			<point x="471" y="600"/>
			<point x="471" y="539" type="curve"/>
			<point x="471" y="473"/>
			<point x="428" y="413"/>
			<point x="286" y="403" type="curve"/>
		</contour>
	</outline>
</glyph>
<glyph name="three.superior" format="1">
	<advance width="468"/>
	<outline>
		<contour>
			<point x="201" y="564" type="line"/>
			<point x="269" y="561"/>
			<point x="308" y="542"/>
			<point x="308" y="502" type="curve"/>
			<point x="308" y="474"/>
			<point x="286" y="449"/>
			<point x="231" y="449" type="curve"/>
			<point x="187" y="449"/>
			<point x="165" y="475"/>
			<point x="158" y="501" type="curve"/>
			<point x="83" y="493" type="line"/>
			<point x="94" y="445"/>
			<point x="135" y="400"/>
			<point x="232" y="400" type="curve"/>
			<point x="331" y="400"/>
			<point x="380" y="439"/>
			<point x="380" y="501" type="curve"/>
			<point x="380" y="560"/>
			<point x="334" y="588"/>
			<point x="280" y="592" type="curve"/>
			<point x="280" y="593" type="line"/>
			<point x="334" y="600"/>
			<point x="364" y="632"/>
			<point x="364" y="675" type="curve"/>
			<point x="364" y="733"/>
			<point x="310" y="764"/>
			<point x="229" y="764" type="curve"/>
			<point x="148" y="764"/>
			<point x="103" y="723"/>
			<point x="92" y="676" type="curve"/>
			<point x="166" y="669" type="line"/>
			<point x="171" y="693"/>
			<point x="188" y="715"/>
			<point x="232" y="715" type="curve"/>
			<point x="278" y="715"/>
			<point x="293" y="694"/>
			<point x="293" y="670" type="curve"/>
			<point x="293" y="642"/>
			<point x="267" y="618"/>
			<point x="201" y="615" type="curve"/>
		</contour>
	</outline>
</glyph>
<glyph name="threequarters" format="1">
	<advance width="1016"/>
	<outline>
		<contour>
			<point x="180" y="487" type="line"/>
			<point x="264" y="486"/>
			<point x="311" y="463"/>
			<point x="311" y="404" type="curve"/>
			<point x="311" y="354"/>
			<point x="280" y="322"/>
			<point x="220" y="322" type="curve"/>
			<point x="164" y="322"/>
			<point x="135" y="343"/>
			<point x="121" y="389" type="curve"/>
			<point x="49" y="383" type="line"/>
			<point x="69" y="312"/>
			<point x="120" y="278"/>
			<point x="221" y="278" type="curve"/>
			<point x="337" y="278"/>
			<point x="383" y="329"/>
			<point x="383" y="399" type="curve"/>
			<point x="383" y="483"/>
			<point x="313" y="509"/>
			<point x="250" y="511" type="curve"/>
			<point x="250" y="513" type="line"/>
			<point x="322" y="521"/>
			<point x="366" y="550"/>
			<point x="366" y="615" type="curve"/>
			<point x="366" y="664"/>
			<point x="340" y="715"/>
			<point x="219" y="715" type="curve"/>
			<point x="119" y="715"/>
			<point x="72" y="674"/>
			<point x="61" y="618" type="curve"/>
			<point x="132" y="613" type="line"/>
			<point x="141" y="648"/>
			<point x="166" y="672"/>
			<point x="217" y="672" type="curve"/>
			<point x="285" y="672"/>
			<point x="295" y="635"/>
			<point x="295" y="607" type="curve"/>
			<point x="295" y="557"/>
			<point x="249" y="533"/>
			<point x="180" y="529" type="curve"/>
		</contour>
		<contour>
			<point x="779" y="716" type="line"/>
			<point x="706" y="716" type="line"/>
			<point x="240" y="-12" type="line"/>
			<point x="314" y="-12" type="line"/>
		</contour>
		<contour>
			<point x="582" y="143" type="line"/>
			<point x="582" y="102" type="line"/>
			<point x="799" y="102" type="line"/>
			<point x="799" y="0" type="line"/>
			<point x="869" y="0" type="line"/>
			<point x="869" y="102" type="line"/>
			<point x="928" y="102" type="line"/>
			<point x="928" y="151" type="line"/>
			<point x="869" y="151" type="line"/>
			<point x="869" y="424" type="line"/>
			<point x="786" y="424" type="line"/>
		</contour>
		<contour>
			<point x="652" y="151" type="line"/>
			<point x="725" y="255" type="line"/>
			<point x="750" y="293"/>
			<point x="775" y="330"/>
			<point x="798" y="369" type="curve"/>
			<point x="801" y="369" type="line"/>
			<point x="799" y="327"/>
			<point x="799" y="290"/>
			<point x="799" y="252" type="curve"/>
			<point x="799" y="151" type="line"/>
		</contour>
	</outline>
</glyph>
<glyph name="two" format="1">
	<advance width="676"/>
	<outline>
		<contour>
			<point x="589" y="71" type="line"/>
			<point x="189" y="71" type="line"/>
			<point x="247" y="296"/>
			<point x="585" y="295"/>
			<point x="585" y="531" type="curve"/>
			<point x="585" y="625"/>
			<point x="513" y="715"/>
			<point x="340" y="715" type="curve"/>
			<point x="192" y="715"/>
			<point x="120" y="640"/>
			<point x="91" y="551" type="curve"/>
			<point x="185" y="545" type="line"/>
			<point x="202" y="605"/>
			<point x="247" y="652"/>
			<point x="336" y="652" type="curve"/>
			<point x="465" y="652"/>
			<point x="495" y="582"/>
			<point x="495" y="528" type="curve"/>
			<point x="495" y="352"/>
			<point x="144" y="335"/>
			<point x="78" y="9" type="curve"/>
			<point x="89" y="0" type="line"/>
			<point x="589" y="0" type="line"/>
		</contour>
	</outline>
</glyph>
<glyph name="two.superior" format="1">
	<advance width="462"/>
	<outline>
		<contour>
			<point x="376" y="461" type="line"/>
			<point x="169" y="461" type="line"/>
			<point x="195" y="549"/>
			<point x="374" y="547"/>
			<point x="374" y="668" type="curve"/>
			<point x="374" y="721"/>
			<point x="326" y="764"/>
			<point x="235" y="764" type="curve"/>
			<point x="148" y="764"/>
			<point x="105" y="722"/>
			<point x="84" y="671" type="curve"/>
			<point x="160" y="666" type="line"/>
			<point x="169" y="693"/>
			<point x="190" y="715"/>
			<point x="232" y="715" type="curve"/>
			<point x="289" y="715"/>
			<point x="302" y="688"/>
			<point x="302" y="666" type="curve"/>
			<point x="302" y="591"/>
			<point x="115" y="581"/>
			<point x="78" y="411" type="curve"/>
			<point x="84" y="406" type="line"/>
			<point x="376" y="406" type="line"/>
		</contour>
	</outline>
</glyph>
<glyph name="twosuperior" format="1">
	<advance width="444"/>
	<outline>
		<contour>
			<point x="383" y="287" type="line"/>
			<point x="383" y="341" type="line"/>
			<point x="140" y="341" type="line"/>
			<point x="187" y="459"/>
			<point x="381" y="470"/>
			<point x="381" y="604" type="curve"/>
			<point x="381" y="666"/>
			<point x="339" y="715"/>
			<point x="225" y="715" type="curve"/>
			<point x="117" y="715"/>
			<point x="72" y="668"/>
			<point x="59" y="610" type="curve"/>
			<point x="132" y="606" type="line"/>
			<point x="141" y="641"/>
			<point x="165" y="670"/>
			<point x="222" y="670" type="curve"/>
			<point x="279" y="670"/>
			<point x="309" y="643"/>
			<point x="309" y="602" type="curve"/>
			<point x="309" y="501"/>
			<point x="95" y="479"/>
			<point x="49" y="298" type="curve"/>
			<point x="61" y="287" type="line"/>
		</contour>
	</outline>
</glyph>
<glyph name="underscore" format="1">
	<advance width="568"/>
	<outline>
		<contour>
			<point x="568" y="-127" type="line"/>
			<point x="568" y="-76" type="line"/>
			<point x="0" y="-76" type="line"/>
			<point x="0" y="-127" type="line"/>
		</contour>
	</outline>
</glyph>
<glyph name="x" format="1">
	<advance width="530"/>
	<outline>
		<contour>
			<point x="485" y="540" type="line"/>
			<point x="378" y="540" type="line"/>
			<point x="267" y="325" type="line"/>
			<point x="265" y="325" type="line"/>
			<point x="153" y="540" type="line"/>
			<point x="46" y="540" type="line"/>
			<point x="46" y="535" type="line"/>
			<point x="212" y="279" type="line"/>
			<point x="32" y="4" type="line"/>
			<point x="32" y="0" type="line"/>
			<point x="144" y="0" type="line"/>
			<point x="265" y="229" type="line"/>
			<point x="267" y="229" type="line"/>
			<point x="388" y="0" type="line"/>
			<point x="499" y="0" type="line"/>
			<point x="499" y="4" type="line"/>
			<point x="320" y="279" type="line"/>
			<point x="485" y="535" type="line"/>
		</contour>
	</outline>
</glyph>
<glyph name="ydieresis" format="1">
	<advance width="534"/>
	<outline>
		<contour>
			<point x="516" y="540" type="line"/>
			<point x="422" y="540" type="line"/>
			<point x="364" y="331" type="line"/>
			<point x="344" y="263"/>
			<point x="323" y="191"/>
			<point x="303" y="111" type="curve"/>
			<point x="299" y="111" type="line"/>
			<point x="272" y="186"/>
			<point x="240" y="260"/>
			<point x="211" y="330" type="curve"/>
			<point x="124" y="540" type="line"/>
			<point x="22" y="540" type="line"/>
			<point x="262" y="18" type="line"/>
			<point x="234" y="-83" type="line"/>
			<point x="223" y="-120"/>
			<point x="209" y="-149"/>
			<point x="192" y="-170" type="curve"/>
			<point x="172" y="-194"/>
			<point x="146" y="-207"/>
			<point x="116" y="-207" type="curve"/>
			<point x="97" y="-207"/>
			<point x="79" y="-203"/>
			<point x="64" y="-197" type="curve"/>
			<point x="48" y="-190"/>
			<point x="35" y="-182"/>
			<point x="26" y="-175" type="curve"/>
			<point x="2" y="-234" type="line"/>
			<point x="18" y="-243"/>
			<point x="34" y="-250"/>
			<point x="54" y="-256" type="curve"/>
			<point x="75" y="-262"/>
			<point x="97" y="-265"/>
			<point x="123" y="-265" type="curve"/>
			<point x="182" y="-265"/>
			<point x="222" y="-243"/>
			<point x="251" y="-214" type="curve"/>
			<point x="282" y="-184"/>
			<point x="306" y="-131"/>
			<point x="324" y="-82" type="curve"/>
		</contour>
		<contour>
			<point x="154" y="694" type="line"/>
			<point x="154" y="602" type="line"/>
			<point x="217" y="602" type="line"/>
			<point x="217" y="694" type="line"/>
		</contour>
		<contour>
			<point x="344" y="694" type="line"/>
			<point x="344" y="602" type="line"/>
			<point x="406" y="602" type="line"/>
			<point x="406" y="694" type="line"/>
		</contour>
	</outline>
</glyph>
<glyph name="zero" format="1">
	<advance width="678"/>
	<outline>
		<contour>
			<point x="45" y="351" type="line"/>
			<point x="45" y="102"/>
			<point x="157" y="-13"/>
			<point x="339" y="-13" type="curve"/>
			<point x="528" y="-13"/>
			<point x="633" y="108"/>
			<point x="633" y="351" type="curve"/>
			<point x="633" y="594"/>
			<point x="524" y="715"/>
			<point x="339" y="715" type="curve"/>
			<point x="155" y="715"/>
			<point x="45" y="595"/>
			<point x="45" y="352" type="curve"/>
		</contour>
		<contour>
			<point x="339" y="653" type="line"/>
			<point x="448" y="653"/>
			<point x="543" y="558"/>
			<point x="543" y="352" type="curve"/>
			<point x="543" y="136"/>
			<point x="457" y="51"/>
			<point x="339" y="51" type="curve"/>
			<point x="223" y="51"/>
			<point x="135" y="135"/>
			<point x="135" y="352" type="curve"/>
			<point x="135" y="559"/>
			<point x="230" y="653"/>
			<point x="338" y="653" type="curve"/>
		</contour>
	</outline>
</glyph>
